# 3ds Max Wavefront OBJ Exporter v0.97b - (c)2007 guruware
# ì¬‚µ‚½ƒtƒ@ƒCƒ‹ : 17.04.2019 14:07:11

mtllib asteroid 3.mtl

#
# object Box001
#

v  -2.5000 2.5000 10.0000
v  2.5000 2.5000 10.0000
v  0.0000 7.5000 7.5000
v  2.5000 10.0000 2.5000
v  -2.5000 10.0000 2.5000
v  10.0000 2.5000 2.5000
v  10.0000 2.5000 -2.5000
v  7.5000 7.5000 0.0000
v  2.5000 10.0000 -2.5000
v  2.5000 2.5000 -10.0000
v  -2.5000 2.5000 -10.0000
v  -0.0000 7.5000 -7.5000
v  -2.5000 10.0000 -2.5000
v  -7.5000 7.5000 0.0000
v  -10.0000 2.5000 -2.5000
v  -10.0000 2.5000 2.5000
v  0.0000 11.0000 -0.0000
v  -10.0000 -2.4889 -2.5000
v  -10.0000 -2.5111 2.5000
v  -11.0000 -0.0000 -0.0000
v  -2.5000 -2.5000 10.0000
v  -7.5000 0.0000 7.5000
v  -7.5000 -0.0000 -7.5000
v  -2.5000 -2.5000 -10.0000
v  2.5000 -2.5000 -10.0000
v  0.0000 0.0000 -11.0000
v  10.0000 -2.4889 -2.5000
v  7.5000 -0.0000 -7.5000
v  10.0000 -2.5111 2.5000
v  11.0000 0.0000 -0.0000
v  2.5000 -2.5000 10.0000
v  7.5000 -0.0000 7.5000
v  -0.0000 -0.0000 11.0000
v  0.0000 -7.5000 7.5000
v  -2.5000 -10.0000 2.5000
v  2.5000 -10.0000 2.5000
v  -2.5000 -10.0000 -2.5000
v  -7.5000 -7.5000 0.0000
v  2.5000 -10.0000 -2.5000
v  -0.0000 -7.5000 -7.5000
v  7.5000 -7.5000 -0.0000
v  0.0000 -11.0000 -0.0000
v  -6.0000 6.0000 -6.0000
v  -6.0000 6.0000 6.0000
v  6.0000 6.0000 6.0000
v  6.0000 6.0000 -6.0000
v  6.0000 -6.0000 -6.0000
v  -6.0000 -6.0000 -6.0000
v  -6.0000 -6.0000 6.0000
v  6.0000 -6.0000 6.0000
# 50 vertices

vn -0.0000 0.4472 0.8944
vn -0.0000 0.8944 0.4472
vn 0.8944 0.4472 0.0000
vn 0.4472 0.8944 -0.0000
vn 0.0000 0.4472 -0.8944
vn -0.0000 0.8944 -0.4472
vn -0.4472 0.8944 -0.0000
vn -0.8944 0.4472 -0.0000
vn -0.3714 0.9285 -0.0000
vn -0.0000 0.9285 0.3714
vn 0.3714 0.9285 -0.0000
vn -0.0000 0.9285 -0.3714
vn -0.9285 -0.3714 -0.0017
vn -0.9285 -0.0000 0.3714
vn -0.9285 0.3714 -0.0000
vn -0.9285 -0.0000 -0.3714
vn -0.4472 0.0000 0.8944
vn -0.8944 -0.0000 0.4472
vn -0.8944 -0.0000 -0.4472
vn -0.4472 -0.0000 -0.8944
vn 0.0000 -0.3714 -0.9285
vn -0.3714 -0.0000 -0.9285
vn 0.0000 0.3714 -0.9285
vn 0.3714 -0.0000 -0.9285
vn 0.8944 -0.0000 -0.4472
vn 0.4472 -0.0000 -0.8944
vn 0.9285 0.0000 0.3714
vn 0.9285 -0.3714 -0.0016
vn 0.9285 -0.0000 -0.3714
vn 0.9285 0.3714 0.0000
vn 0.4472 0.0000 0.8944
vn 0.8944 0.0000 0.4472
vn 0.3714 0.0000 0.9285
vn -0.0000 0.3714 0.9285
vn -0.3714 0.0000 0.9285
vn -0.0000 -0.3714 0.9285
vn -0.0000 -0.4472 0.8944
vn -0.0000 -0.8944 0.4472
vn -0.4472 -0.8944 0.0000
vn -0.8944 -0.4472 -0.0020
vn 0.0000 -0.8944 -0.4472
vn 0.0000 -0.4472 -0.8944
vn 0.4472 -0.8944 0.0000
vn 0.8944 -0.4472 -0.0020
vn 0.0000 -0.9285 -0.3714
vn 0.3714 -0.9285 0.0000
vn -0.0000 -0.9285 0.3714
vn -0.3714 -0.9285 0.0000
vn -0.7683 0.5488 -0.3293
vn -0.5488 0.7684 -0.3293
vn -0.3293 0.5488 -0.7683
vn -0.3293 0.7684 -0.5488
vn -0.5488 0.3293 -0.7683
vn -0.7683 0.3293 -0.5488
vn -0.7683 0.5488 0.3293
vn -0.5488 0.7683 0.3293
vn -0.3293 0.5488 0.7683
vn -0.3293 0.7683 0.5488
vn -0.7683 0.3293 0.5488
vn -0.5488 0.3293 0.7683
vn 0.7684 0.5488 0.3293
vn 0.5488 0.7683 0.3293
vn 0.3293 0.5488 0.7683
vn 0.3293 0.7683 0.5488
vn 0.5488 0.3293 0.7683
vn 0.7684 0.3293 0.5488
vn 0.3293 0.5488 -0.7684
vn 0.3293 0.7683 -0.5488
vn 0.7683 0.5488 -0.3293
vn 0.5488 0.7683 -0.3293
vn 0.5488 0.3293 -0.7683
vn 0.7683 0.3293 -0.5488
vn 0.7688 -0.3293 -0.5483
vn 0.5488 -0.3293 -0.7684
vn 0.3293 -0.7683 -0.5488
vn 0.3293 -0.5488 -0.7684
vn 0.5488 -0.7683 -0.3293
vn 0.7690 -0.5479 -0.3292
vn -0.5488 -0.3293 -0.7683
vn -0.7688 -0.3293 -0.5483
vn -0.3293 -0.5488 -0.7683
vn -0.3293 -0.7683 -0.5488
vn -0.7690 -0.5479 -0.3292
vn -0.5488 -0.7683 -0.3293
vn -0.7677 -0.5497 0.3294
vn -0.5488 -0.7683 0.3293
vn -0.7679 -0.3293 0.5494
vn -0.5488 -0.3293 0.7683
vn -0.3293 -0.5488 0.7683
vn -0.3293 -0.7684 0.5488
vn 0.5488 -0.3293 0.7683
vn 0.7679 -0.3293 0.5494
vn 0.3293 -0.7683 0.5488
vn 0.3293 -0.5488 0.7683
vn 0.7677 -0.5497 0.3294
vn 0.5488 -0.7683 0.3293
# 96 vertex normals

vt 0.7681 0.4835 0.0000
vt 0.9631 0.4835 0.0000
vt 0.8656 0.5399 0.0000
vt 0.9631 0.5680 0.0000
vt 0.7681 0.5680 0.0000
vt 0.4858 0.4755 0.0000
vt 0.2953 0.4755 0.0000
vt 0.3905 0.5320 0.0000
vt 0.2953 0.5603 0.0000
vt 0.4858 0.5603 0.0000
vt 0.2476 0.4775 0.0000
vt 0.0803 0.4775 0.0000
vt 0.1640 0.5351 0.0000
vt 0.0803 0.5639 0.0000
vt 0.2476 0.5639 0.0000
vt 0.7215 0.5626 0.0000
vt 0.5488 0.5626 0.0000
vt 0.6351 0.5350 0.0000
vt 0.5488 0.4798 0.0000
vt 0.7215 0.4798 0.0000
vt 0.6351 0.5736 0.0000
vt 0.8656 0.5793 0.0000
vt 0.3905 0.5716 0.0000
vt 0.1640 0.5754 0.0000
vt 0.5488 0.4248 0.0000
vt 0.7215 0.4246 0.0000
vt 0.6351 0.4523 0.0000
vt 0.6125 0.0536 0.0000
vt 0.6125 0.2719 0.0000
vt 0.5957 0.1630 0.0000
vt 0.0994 0.2667 0.0000
vt 0.0994 0.0549 0.0000
vt 0.0815 0.1606 0.0000
vt 0.7383 0.0540 0.0000
vt 0.7383 0.2719 0.0000
vt 0.6544 0.1630 0.0000
vt 0.1442 0.1606 0.0000
vt 0.2338 0.2667 0.0000
vt 0.2338 0.0544 0.0000
vt 0.2476 0.4199 0.0000
vt 0.0803 0.4199 0.0000
vt 0.1640 0.4487 0.0000
vt 0.2785 0.1606 0.0000
vt 0.3233 0.2667 0.0000
vt 0.3233 0.0544 0.0000
vt 0.4577 0.2667 0.0000
vt 0.4577 0.0549 0.0000
vt 0.4129 0.1606 0.0000
vt 0.9479 0.2719 0.0000
vt 0.9479 0.0536 0.0000
vt 0.9647 0.1630 0.0000
vt 0.4858 0.4188 0.0000
vt 0.2953 0.4191 0.0000
vt 0.3905 0.4472 0.0000
vt 0.4756 0.1606 0.0000
vt 0.8221 0.2719 0.0000
vt 0.8221 0.0540 0.0000
vt 0.9060 0.1630 0.0000
vt 0.7802 0.1630 0.0000
vt 0.8656 0.4553 0.0000
vt 0.7681 0.4272 0.0000
vt 0.9631 0.4272 0.0000
vt 0.8656 0.3708 0.0000
vt 0.7681 0.3427 0.0000
vt 0.9631 0.3427 0.0000
vt 0.5488 0.3420 0.0000
vt 0.7215 0.3420 0.0000
vt 0.6351 0.3695 0.0000
vt 0.2476 0.3336 0.0000
vt 0.0803 0.3336 0.0000
vt 0.1640 0.3624 0.0000
vt 0.4858 0.3341 0.0000
vt 0.2953 0.3341 0.0000
vt 0.3905 0.3624 0.0000
vt 0.1640 0.3221 0.0000
vt 0.3905 0.3228 0.0000
vt 0.8656 0.3314 0.0000
vt 0.6351 0.3309 0.0000
vt 0.1613 0.8854 0.0000
vt 0.0859 0.8277 0.0000
vt 0.1330 0.9102 0.0000
vt 0.2273 0.9515 0.0000
vt 0.2273 0.8277 0.0000
vt 0.2744 0.9102 0.0000
vt 0.1330 0.7864 0.0000
vt 0.5811 0.8267 0.0000
vt 0.6459 0.8834 0.0000
vt 0.6216 0.9077 0.0000
vt 0.7026 0.9482 0.0000
vt 0.7026 0.8267 0.0000
vt 0.7431 0.9077 0.0000
vt 0.6216 0.7862 0.0000
vt 0.8404 0.8834 0.0000
vt 0.9052 0.8267 0.0000
vt 0.8647 0.9077 0.0000
vt 0.7836 0.9482 0.0000
vt 0.7836 0.8267 0.0000
vt 0.8647 0.7862 0.0000
vt 0.3876 0.8854 0.0000
vt 0.3216 0.8277 0.0000
vt 0.3216 0.9515 0.0000
vt 0.4159 0.9102 0.0000
vt 0.4630 0.8277 0.0000
vt 0.4159 0.7864 0.0000
vt 0.4630 0.7453 0.0000
vt 0.3876 0.6873 0.0000
vt 0.3216 0.7451 0.0000
vt 0.3216 0.6213 0.0000
vt 0.2744 0.6626 0.0000
vt 0.4159 0.6626 0.0000
vt 0.2273 0.7451 0.0000
vt 0.1613 0.6873 0.0000
vt 0.0859 0.7453 0.0000
vt 0.2273 0.6213 0.0000
vt 0.1330 0.6626 0.0000
vt 0.5811 0.7455 0.0000
vt 0.6216 0.6647 0.0000
vt 0.6459 0.6890 0.0000
vt 0.7026 0.6242 0.0000
vt 0.7026 0.7457 0.0000
vt 0.7431 0.6647 0.0000
vt 0.7836 0.7457 0.0000
vt 0.8404 0.6890 0.0000
vt 0.9052 0.7455 0.0000
vt 0.7836 0.6242 0.0000
vt 0.8647 0.6647 0.0000
# 126 texture coords

g Box001
usemtl Material__2
s off
f 1/1/1 2/2/1 3/3/1 
f 4/4/2 5/5/2 3/3/2 
f 6/6/3 7/7/3 8/8/3 
f 9/9/4 4/10/4 8/8/4 
f 10/11/5 11/12/5 12/13/5 
f 13/14/6 9/15/6 12/13/6 
f 5/16/7 13/17/7 14/18/7 
f 15/19/8 16/20/8 14/18/8 
f 13/17/9 5/16/9 17/21/9 
f 5/5/10 4/4/10 17/22/10 
f 4/10/11 9/9/11 17/23/11 
f 9/15/12 13/14/12 17/24/12 
f 18/25/13 19/26/13 20/27/13 
f 19/28/14 16/29/14 20/30/14 
f 16/20/15 15/19/15 20/27/15 
f 15/31/16 18/32/16 20/33/16 
f 21/34/17 1/35/17 22/36/17 
f 16/29/18 19/28/18 22/36/18 
f 18/32/19 15/31/19 23/37/19 
f 11/38/20 24/39/20 23/37/20 
f 25/40/21 24/41/21 26/42/21 
f 24/39/22 11/38/22 26/43/22 
f 11/12/23 10/11/23 26/42/23 
f 10/44/24 25/45/24 26/43/24 
f 7/46/25 27/47/25 28/48/25 
f 25/45/26 10/44/26 28/48/26 
f 6/49/27 29/50/27 30/51/27 
f 29/52/28 27/53/28 30/54/28 
f 27/47/29 7/46/29 30/55/29 
f 7/7/30 6/6/30 30/54/30 
f 2/56/31 31/57/31 32/58/31 
f 29/50/32 6/49/32 32/58/32 
f 31/57/33 2/56/33 33/59/33 
f 2/2/34 1/1/34 33/60/34 
f 1/35/35 21/34/35 33/59/35 
f 21/61/36 31/62/36 33/60/36 
f 31/62/37 21/61/37 34/63/37 
f 35/64/38 36/65/38 34/63/38 
f 37/66/39 35/67/39 38/68/39 
f 19/26/40 18/25/40 38/68/40 
f 39/69/41 37/70/41 40/71/41 
f 24/41/42 25/40/42 40/71/42 
f 36/72/43 39/73/43 41/74/43 
f 27/53/44 29/52/44 41/74/44 
f 37/70/45 39/69/45 42/75/45 
f 39/73/46 36/72/46 42/76/46 
f 36/65/47 35/64/47 42/77/47 
f 35/67/48 37/66/48 42/78/48 
f 43/79/49 15/80/49 14/81/49 
f 13/82/50 43/79/50 14/81/50 
f 11/83/51 43/79/51 12/84/51 
f 43/79/52 13/82/52 12/84/52 
f 43/79/53 11/83/53 23/85/53 
f 15/80/54 43/79/54 23/85/54 
f 16/86/55 44/87/55 14/88/55 
f 44/87/56 5/89/56 14/88/56 
f 44/87/57 1/90/57 3/91/57 
f 5/89/58 44/87/58 3/91/58 
f 44/87/59 16/86/59 22/92/59 
f 1/90/60 44/87/60 22/92/60 
f 45/93/61 6/94/61 8/95/61 
f 4/96/62 45/93/62 8/95/62 
f 2/97/63 45/93/63 3/91/63 
f 45/93/64 4/96/64 3/91/64 
f 45/93/65 2/97/65 32/98/65 
f 6/94/66 45/93/66 32/98/66 
f 46/99/67 10/100/67 12/84/67 
f 9/101/68 46/99/68 12/84/68 
f 8/102/69 7/103/69 46/99/69 
f 46/99/70 9/101/70 8/102/70 
f 10/100/71 46/99/71 28/104/71 
f 7/103/72 28/104/72 46/99/72 
f 28/104/73 27/105/73 47/106/73 
f 47/106/74 25/107/74 28/104/74 
f 39/108/75 40/109/75 47/106/75 
f 25/107/76 47/106/76 40/109/76 
f 41/110/77 39/108/77 47/106/77 
f 47/106/78 27/105/78 41/110/78 
f 23/85/79 24/111/79 48/112/79 
f 48/112/80 18/113/80 23/85/80 
f 48/112/81 24/111/81 40/109/81 
f 40/109/82 37/114/82 48/112/82 
f 38/115/83 18/113/83 48/112/83 
f 48/112/84 37/114/84 38/115/84 
f 19/116/85 38/117/85 49/118/85 
f 35/119/86 49/118/86 38/117/86 
f 22/92/87 19/116/87 49/118/87 
f 49/118/88 21/120/88 22/92/88 
f 21/120/89 49/118/89 34/121/89 
f 35/119/90 34/121/90 49/118/90 
f 31/122/91 50/123/91 32/98/91 
f 29/124/92 32/98/92 50/123/92 
f 34/121/93 36/125/93 50/123/93 
f 50/123/94 31/122/94 34/121/94 
f 41/126/95 29/124/95 50/123/95 
f 50/123/96 36/125/96 41/126/96 
# 0 polygons - 96 triangles

