# 3ds Max Wavefront OBJ Exporter v0.97b - (c)2007 guruware
# çÏê¨ÇµÇΩÉtÉ@ÉCÉã : 07.05.2019 13:35:14

mtllib p.mtl

#
# object Box001
#

v  7.7500 8.2500 5.0000
v  15.0000 5.0000 5.0000
v  5.0000 15.0000 5.0000
v  15.0000 15.0000 1.0000
v  15.0000 15.0000 -1.0000
v  5.0000 20.0000 -1.0000
v  5.0000 20.0000 1.0000
v  15.0000 5.0000 -5.0000
v  7.7500 8.2500 -5.0000
v  5.0000 15.0000 -5.0000
v  4.2500 4.7500 -1.0000
v  4.2500 4.7500 1.0000
v  -4.2500 4.7500 1.0000
v  -4.2500 4.7500 -1.0000
v  -5.0000 15.0000 5.0000
v  -7.7500 8.2500 5.0000
v  -5.0000 20.0000 -1.0000
v  -5.0000 20.0000 1.0000
v  -7.7500 8.2500 -5.0000
v  -5.0000 15.0000 -5.0000
v  -15.0000 5.0000 5.0000
v  -15.0000 15.0000 -1.0000
v  -15.0000 15.0000 1.0000
v  -15.0000 5.0000 -5.0000
v  -4.2500 -4.7500 1.0000
v  -4.2500 -4.7500 -1.0000
v  -15.0000 -5.0000 5.0000
v  -7.7500 -8.2500 5.0000
v  -20.0000 5.0000 1.0000
v  -20.0000 5.0000 -1.0000
v  -20.0000 -5.0000 -1.0000
v  -20.0000 -5.0000 1.0000
v  -7.7500 -8.2500 -5.0000
v  -15.0000 -5.0000 -5.0000
v  -10.0000 -15.0000 5.0000
v  -10.0000 -15.0000 -5.0000
v  4.2500 -4.7500 1.0000
v  4.2500 -4.7500 -1.0000
v  5.0000 -15.0000 5.0000
v  7.7500 -8.2500 5.0000
v  -5.0000 -20.0000 1.0000
v  -5.0000 -20.0000 -1.0000
v  5.0000 -20.0000 -1.0000
v  5.0000 -20.0000 1.0000
v  7.7500 -8.2500 -5.0000
v  5.0000 -15.0000 -5.0000
v  15.0000 -5.0000 5.0000
v  15.0000 -15.0000 -1.0000
v  15.0000 -15.0000 1.0000
v  15.0000 -5.0000 -5.0000
v  -10.0000 -40.0000 5.0000
v  -15.0000 -40.0000 5.0000
v  -15.0000 -50.0000 1.0000
v  -5.0000 -50.0000 1.0000
v  -20.0000 -40.0000 1.0000
v  -20.0000 -40.0000 -1.0000
v  -15.0000 -50.0000 -1.0000
v  -15.0000 -40.0000 -5.0000
v  -10.0000 -40.0000 -5.0000
v  -5.0000 -50.0000 -1.0000
v  20.0000 5.0000 -1.0000
v  20.0000 5.0000 1.0000
v  20.0000 -5.0000 1.0000
v  20.0000 -5.0000 -1.0000
# 64 vertices

vn -0.0000 -0.0000 1.0000
vn 0.4472 0.8944 -0.0000
vn 0.0000 0.0000 -1.0000
vn 0.0000 -1.0000 -0.0000
vn 0.0000 -0.0000 1.0000
vn -0.0000 1.0000 -0.0000
vn -0.4472 0.8944 -0.0000
vn -0.0000 0.0000 -1.0000
vn 1.0000 0.0000 -0.0000
vn -1.0000 0.0000 -0.0000
vn 0.0000 0.0000 1.0000
vn -0.0000 0.0000 1.0000
vn 0.4472 -0.8944 -0.0000
vn -0.0000 -0.3714 0.9285
vn -0.8944 -0.4472 -0.0000
vn -0.0000 -0.3714 -0.9285
vn -0.0000 -0.6247 -0.7809
vn 0.3328 -0.4438 -0.8321
vn 0.3328 -0.4438 0.8321
vn 0.0000 -0.6247 0.7809
vn 0.3328 0.4438 -0.8321
vn 0.0000 0.6247 -0.7809
vn -0.3328 0.4438 -0.8321
vn -0.8944 0.4472 0.0000
vn -0.3328 0.4438 0.8320
vn 0.0000 0.6247 0.7809
vn 0.3328 0.4438 0.8320
vn -0.6247 -0.0000 0.7809
vn -0.5963 0.2981 0.7454
vn -0.5963 0.2981 -0.7454
vn -0.6247 0.0000 -0.7809
vn 0.5963 0.2981 -0.7454
vn 0.8944 0.4472 0.0000
vn 0.5963 0.2981 0.7454
vn 0.5963 -0.2981 0.7454
vn 0.8944 -0.4472 -0.0000
vn 0.5963 -0.2981 -0.7454
vn 0.0000 -0.7526 0.6585
vn -0.0000 -0.7526 -0.6585
vn 0.7526 0.0000 -0.6585
vn 0.7526 -0.0000 0.6585
vn 0.0000 0.7526 -0.6585
vn -0.0000 0.7526 0.6585
vn -0.7526 -0.0000 0.6585
vn -0.7526 0.0000 -0.6585
vn 0.6247 -0.0000 -0.7809
vn 0.6247 0.0000 0.7809
vn -0.5963 -0.2981 0.7454
vn -0.5963 -0.2981 -0.7454
vn 0.6247 -0.0000 0.7809
vn 0.6247 0.0000 -0.7809
# 51 vertex normals

vt 1.0000 0.0000 0.0000
vt 0.0000 0.0000 0.0000
vt 0.0000 1.0000 0.0000
vt 1.0000 1.0000 0.0000
# 4 texture coords

g Box001
usemtl wire_177148027
s off
f 1/1/1 2/2/1 3/1/1 
f 4/2/2 5/3/2 6/3/2 7/1/2 
f 8/3/3 9/4/3 10/3/3 
f 11/4/4 12/1/4 13/1/4 14/4/4 
f 1/1/5 3/1/5 15/1/5 16/1/5 
f 7/1/6 6/3/6 17/3/6 18/1/6 
f 10/3/3 9/4/3 19/4/3 20/3/3 
f 16/1/5 15/1/5 21/1/5 
f 18/1/7 17/3/7 22/3/7 23/1/7 
f 20/3/8 19/4/8 24/3/8 
f 14/4/9 13/1/9 25/1/9 26/4/9 
f 16/1/5 21/1/5 27/1/5 28/1/5 
f 29/1/10 30/3/10 31/3/10 32/1/10 
f 24/3/8 19/4/8 33/4/8 34/3/8 
f 28/1/11 27/1/11 35/1/11 
f 34/3/8 33/4/8 36/4/8 
f 26/4/6 25/1/6 37/1/6 38/4/6 
f 28/1/11 35/1/11 39/1/11 40/1/11 
f 41/1/4 42/4/4 43/4/4 44/1/4 
f 36/4/8 33/4/8 45/4/8 46/4/8 
f 40/1/12 39/1/12 47/1/12 
f 44/1/13 43/4/13 48/4/13 49/1/13 
f 46/4/3 45/4/3 50/4/3 
f 51/1/14 52/1/14 53/1/14 54/1/14 
f 55/1/15 56/3/15 57/3/15 53/1/15 
f 58/3/16 59/4/16 60/4/16 57/3/16 
f 36/4/17 46/4/17 43/4/17 42/4/17 
f 46/4/18 50/4/18 48/4/18 43/4/18 
f 47/1/19 39/1/19 44/1/19 49/1/19 
f 39/1/20 35/1/20 41/1/20 44/1/20 
f 8/3/21 10/3/21 6/3/21 5/3/21 
f 10/3/22 20/3/22 17/3/22 6/3/22 
f 20/3/23 24/3/23 22/3/23 17/3/23 
f 30/3/24 29/1/24 23/1/24 22/3/24 
f 21/1/25 15/1/25 18/1/25 23/1/25 
f 15/1/26 3/1/26 7/1/26 18/1/26 
f 3/1/27 2/2/27 4/2/27 7/1/27 
f 27/1/28 21/1/28 29/1/28 32/1/28 
f 21/1/29 23/1/29 29/1/29 
f 22/3/30 24/3/30 30/3/30 
f 24/3/31 34/3/31 31/3/31 30/3/31 
f 8/3/32 5/3/32 61/3/32 
f 5/3/33 4/2/33 62/2/33 61/3/33 
f 4/2/34 2/2/34 62/2/34 
f 47/1/35 49/1/35 63/1/35 
f 49/1/36 48/4/36 64/4/36 63/1/36 
f 48/4/37 50/4/37 64/4/37 
f 1/1/38 16/1/38 13/1/38 12/1/38 
f 19/4/39 9/4/39 11/4/39 14/4/39 
f 33/4/40 19/4/40 14/4/40 26/4/40 
f 16/1/41 28/1/41 25/1/41 13/1/41 
f 45/4/42 33/4/42 26/4/42 38/4/42 
f 28/1/43 40/1/43 37/1/43 25/1/43 
f 1/1/44 12/1/44 37/1/44 40/2/44 
f 12/1/10 11/4/10 38/4/10 37/1/10 
f 11/4/45 9/4/45 45/3/45 38/4/45 
f 8/3/46 61/3/46 64/3/46 50/3/46 
f 61/3/9 62/2/9 63/2/9 64/3/9 
f 62/2/47 2/2/47 47/2/47 63/2/47 
f 47/2/1 2/2/1 1/1/1 40/2/1 
f 8/3/3 50/3/3 45/3/3 9/4/3 
f 60/4/4 54/1/4 53/1/4 57/3/4 
f 52/1/48 55/1/48 53/1/48 
f 56/3/49 58/3/49 57/3/49 
f 42/4/9 41/1/9 54/1/9 60/4/9 
f 41/1/50 35/1/50 51/1/50 54/1/50 
f 35/1/1 27/1/1 52/1/1 51/1/1 
f 27/1/28 32/1/28 55/1/28 52/1/28 
f 32/1/10 31/3/10 56/3/10 55/1/10 
f 31/3/31 34/3/31 58/3/31 56/3/31 
f 34/3/8 36/4/8 59/4/8 58/3/8 
f 36/4/51 42/4/51 60/4/51 59/4/51 
# 56 polygons - 16 triangles

