# 3ds Max Wavefront OBJ Exporter v0.97b - (c)2007 guruware
# çÏê¨ÇµÇΩÉtÉ@ÉCÉã : 07.05.2019 13:45:26

mtllib r.mtl

#
# object Box001
#

v  -5.0000 -40.0003 1.0000
v  -5.0000 -40.0003 -1.0000
v  5.0000 -40.0003 -1.0000
v  5.0000 -40.0003 1.0000
v  -5.0000 30.0000 1.0000
v  5.0000 30.0000 1.0000
v  5.0000 30.0000 -1.0000
v  -5.0000 30.0000 -1.0000
v  -5.0000 -5.0000 5.0000
v  5.0000 -5.0000 5.0000
v  5.0000 5.0000 5.0000
v  -5.0000 5.0000 5.0000
v  40.0000 -5.0000 1.0000
v  40.0000 -5.0000 -1.0000
v  40.0000 5.0000 -1.0000
v  40.0000 5.0000 1.0000
v  5.0000 -5.0000 -5.0000
v  -5.0000 -5.0000 -5.0000
v  -5.0000 5.0000 -5.0000
v  5.0000 5.0000 -5.0000
v  -10.0000 -5.0000 -1.0000
v  -10.0000 -5.0000 1.0000
v  -10.0000 5.0000 1.0000
v  -10.0000 5.0000 -1.0000
v  5.0000 15.0000 5.0000
v  -5.0000 15.0000 5.0000
v  -5.0000 15.0000 -5.0000
v  5.0000 15.0000 -5.0000
v  -10.0000 15.0000 1.0000
v  -10.0000 15.0000 -1.0000
v  -10.0000 -35.0003 -1.0000
v  -10.0000 -35.0003 1.0000
v  5.0000 -35.0003 -5.0000
v  -5.0000 -35.0003 -5.0000
v  10.0000 -5.0000 -1.0000
v  10.0000 -5.0000 1.0000
v  10.0000 -35.0003 1.0000
v  10.0000 -35.0003 -1.0000
v  -5.0000 -35.0003 5.0000
v  5.0000 -35.0003 5.0000
v  5.0000 25.0000 5.0000
v  -5.0000 25.0000 5.0000
v  10.0000 15.0000 1.0000
v  10.0000 15.0000 -1.0000
v  10.0000 24.5436 -1.0000
v  10.0000 24.5436 1.0000
v  -5.0000 25.0000 -5.0000
v  5.0000 25.0000 -5.0000
v  -10.0000 25.0000 1.0000
v  -10.0000 25.0000 -1.0000
v  15.0000 0.0000 -1.0000
v  15.0000 0.0000 1.0000
v  15.0000 15.0000 -5.0000
v  15.0000 5.0000 -5.0000
v  15.0000 5.0000 5.0000
v  15.0000 15.0000 5.0000
v  25.0000 0.0000 -1.0000
v  25.0000 0.0000 1.0000
v  25.0000 15.0000 -5.0000
v  25.0000 5.0000 -5.0000
v  15.0000 20.0000 -1.0000
v  15.0000 20.0000 1.0000
v  25.0000 20.0000 1.0000
v  25.0000 20.0000 -1.0000
v  25.0000 5.0000 5.0000
v  25.0000 15.0000 5.0000
v  35.0000 -10.0000 -1.0000
v  35.0000 -10.0000 1.0000
v  35.0000 5.0000 -5.0000
v  35.0000 -5.0000 -5.0000
v  30.0000 15.0000 -1.0000
v  30.0000 15.0000 1.0000
v  35.0000 -5.0000 5.0000
v  35.0000 5.0000 5.0000
# 74 vertices

vn 0.0000 -1.0000 -0.0000
vn 0.0000 1.0000 -0.0000
vn 0.0000 0.0000 1.0000
vn 1.0000 0.0000 -0.0000
vn 0.0000 0.0000 -1.0000
vn -1.0000 0.0000 -0.0000
vn 0.0000 -0.0000 -1.0000
vn 1.0000 -0.0000 -0.0000
vn 0.7071 -0.7071 -0.0000
vn -0.0000 0.0000 1.0000
vn -0.7071 -0.7071 -0.0000
vn -0.0000 -0.0000 -1.0000
vn 0.7071 0.7071 -0.0000
vn 0.0000 -0.6247 -0.7809
vn 0.0000 -0.6247 0.7809
vn -0.6247 -0.0000 0.7809
vn -0.6247 0.0000 0.7809
vn -0.6247 0.0000 -0.7809
vn -0.6247 -0.0000 -0.7809
vn -0.5298 -0.5298 -0.6623
vn -0.5298 -0.5298 0.6623
vn 0.0000 0.6247 0.7809
vn 0.7373 0.6756 -0.0000
vn 0.0000 0.6247 -0.7809
vn -0.5298 0.5298 -0.6623
vn -0.7071 0.7071 -0.0000
vn -0.5298 0.5298 0.6623
vn 0.6247 0.0000 -0.7809
vn 0.5633 0.5162 -0.6452
vn 0.5633 0.5162 0.6452
vn 0.6247 -0.0000 0.7809
vn 0.6247 0.0000 0.7809
vn 0.6247 -0.0000 -0.7809
vn 0.5298 0.5298 -0.6623
vn 0.5298 0.5298 0.6623
vn 0.5298 -0.5298 -0.6623
vn 0.7071 -0.7071 0.0000
vn 0.5298 -0.5298 0.6623
vn -0.0000 -0.6247 0.7809
# 39 vertex normals

vt 1.0000 0.0000 0.0000
vt 1.0000 1.0000 0.0000
vt 0.0000 1.0000 0.0000
vt 0.0000 0.0000 0.0000
# 4 texture coords

g Box001
usemtl wire_140088225
s 2
f 1/1/1 2/2/1 3/3/1 4/4/1 
s 4
f 5/4/2 6/1/2 7/2/2 8/3/2 
s 8
f 9/4/3 10/1/3 11/2/3 12/3/3 
s 16
f 13/4/4 14/1/4 15/2/4 16/3/4 
s 32
f 17/4/5 18/1/5 19/2/5 20/3/5 
s 64
f 21/4/6 22/1/6 23/2/6 24/3/6 
s off
f 12/4/3 11/1/3 25/1/3 26/4/3 
f 20/2/5 19/3/5 27/3/5 28/2/5 
f 24/3/6 23/4/6 29/4/6 30/3/6 
f 22/1/6 21/2/6 31/2/6 32/1/6 
f 18/2/7 17/3/7 33/3/7 34/2/7 
f 35/3/8 36/4/8 37/4/8 38/3/8 
f 10/4/3 9/1/3 39/1/3 40/4/3 
f 26/4/3 25/1/3 41/1/3 42/4/3 
f 43/1/4 44/2/4 45/2/4 46/1/4 
f 28/2/5 27/3/5 47/3/5 48/2/5 
f 30/3/6 29/4/6 49/4/6 50/3/6 
f 36/4/9 35/1/9 51/1/9 52/4/9 
f 17/1/5 20/2/5 53/2/5 54/1/5 
f 11/3/3 10/4/3 55/4/3 56/3/3 
f 52/4/1 51/1/1 57/1/1 58/4/1 
f 54/1/7 53/2/7 59/2/7 60/1/7 
f 61/2/2 62/3/2 63/3/2 64/2/2 
f 56/3/10 55/4/10 65/4/10 66/3/10 
f 58/4/11 57/1/11 67/1/11 68/4/11 
f 60/1/12 59/2/12 69/2/12 70/1/12 
f 71/2/13 72/3/13 16/3/13 15/2/13 
f 66/3/3 65/4/3 73/4/3 74/3/3 
f 34/2/14 33/3/14 3/3/14 2/2/14 
f 38/3/9 37/4/9 4/4/9 3/3/9 
f 40/4/15 39/1/15 1/1/15 4/4/15 
f 9/1/16 12/2/16 23/2/16 22/1/16 
f 12/4/17 26/4/17 29/4/17 23/4/17 
f 26/4/17 42/4/17 49/4/17 29/4/17 
f 47/3/18 27/3/18 30/3/18 50/3/18 
f 27/3/18 19/3/18 24/3/18 30/3/18 
f 19/3/18 18/4/18 21/4/18 24/3/18 
f 18/2/19 34/2/19 31/2/19 21/2/19 
f 34/2/20 2/2/20 31/2/20 
f 2/2/11 1/1/11 32/1/11 31/2/11 
f 1/1/21 39/1/21 32/1/21 
f 39/1/17 9/1/17 22/1/17 32/1/17 
f 42/4/22 41/1/22 6/1/22 5/4/22 
f 46/1/23 45/2/23 7/2/23 6/1/23 
f 48/2/24 47/3/24 8/3/24 7/2/24 
f 47/3/25 50/3/25 8/3/25 
f 50/3/26 49/4/26 5/4/26 8/3/26 
f 49/4/27 42/4/27 5/4/27 
f 20/2/28 28/2/28 44/2/28 
f 28/2/28 48/2/28 45/2/28 44/2/28 
f 48/2/29 7/2/29 45/2/29 
f 6/1/30 41/1/30 46/1/30 
f 41/1/31 25/1/31 43/1/31 46/1/31 
f 25/1/32 11/1/32 43/1/32 
f 11/3/27 56/3/27 43/3/27 
f 62/3/26 61/2/26 44/2/26 43/3/26 
f 53/2/25 20/2/25 44/2/25 
f 59/2/24 53/2/24 61/2/24 64/2/24 
f 53/2/25 44/2/25 61/2/25 
f 43/3/27 56/3/27 62/3/27 
f 56/3/22 66/3/22 63/3/22 62/3/22 
f 70/1/33 69/2/33 15/2/33 14/1/33 
f 69/2/34 59/2/34 71/2/34 15/2/34 
f 59/2/34 64/2/34 71/2/34 
f 64/2/13 63/3/13 72/3/13 71/2/13 
f 63/3/35 66/3/35 72/3/35 
f 66/3/35 74/3/35 16/3/35 72/3/35 
f 74/3/32 73/4/32 13/4/32 16/3/32 
f 17/1/36 54/1/36 51/1/36 35/1/36 
f 54/1/14 60/1/14 57/1/14 51/1/14 
f 60/1/20 70/1/20 67/1/20 57/1/20 
f 70/1/36 14/1/36 67/1/36 
f 14/1/37 13/4/37 68/4/37 67/1/37 
f 13/4/38 73/4/38 68/4/38 
f 73/4/21 65/4/21 58/4/21 68/4/21 
f 65/4/39 55/4/39 52/4/39 58/4/39 
f 55/4/38 10/4/38 36/4/38 52/4/38 
f 10/4/31 40/4/31 37/4/31 36/4/31 
f 33/3/33 17/3/33 35/3/33 38/3/33 
f 40/4/38 4/4/38 37/4/38 
f 3/3/36 33/3/36 38/3/36 
# 63 polygons - 18 triangles

