# 3ds Max Wavefront OBJ Exporter v0.97b - (c)2007 guruware
# ì¬‚µ‚½ƒtƒ@ƒCƒ‹ : 07.05.2019 13:34:54

mtllib S.mtl

#
# object Box001
#

v  5.0000 5.0000 -2.5000
v  5.0000 15.0000 -2.5000
v  10.0000 15.0000 -2.5000
v  3.2650 6.5000 -1.0000
v  3.2650 6.5000 1.0000
v  3.2650 13.5000 1.0000
v  3.2650 13.5000 -1.0000
v  5.0000 5.0000 2.5000
v  10.0000 15.0000 2.5000
v  5.0000 15.0000 2.5000
v  8.0000 6.5000 1.0000
v  8.0000 6.5000 -1.0000
v  11.0000 12.0750 -1.0000
v  11.0000 12.0750 1.0000
v  0.0000 20.0000 -2.5000
v  0.0000 20.0000 2.5000
v  8.6000 20.0000 1.0000
v  8.6000 20.0000 -1.0000
v  0.0000 23.5000 -1.0000
v  0.0000 23.5000 1.0000
v  -3.2650 13.5000 1.0000
v  -3.2650 13.5000 -1.0000
v  -5.0000 15.0000 2.5000
v  -5.0000 15.0000 -2.5000
v  -10.0000 15.0000 2.5000
v  -8.6000 20.0000 -1.0000
v  -8.6000 20.0000 1.0000
v  -10.0000 15.0000 -2.5000
v  -3.2650 6.5000 1.0000
v  -3.2650 6.5000 -1.0000
v  -10.0000 5.0000 2.5000
v  -5.0000 5.0000 2.5000
v  -11.5000 15.7500 1.0000
v  -11.5000 15.7500 -1.0000
v  -11.5000 6.5000 -1.0000
v  -11.5000 6.5000 1.0000
v  -5.0000 5.0000 -2.5000
v  -10.0000 5.0000 -2.5000
v  10.0000 -2.0000 1.0000
v  10.0000 -2.0000 -1.0000
v  5.0000 -5.0000 2.5000
v  10.0000 -5.0000 2.5000
v  -10.0000 2.0000 1.0000
v  -10.0000 2.0000 -1.0000
v  3.2650 -6.5000 -1.0000
v  3.2650 -6.5000 1.0000
v  10.0000 -5.0000 -2.5000
v  5.0000 -5.0000 -2.5000
v  11.5000 -6.5000 -1.0000
v  11.5000 -6.5000 1.0000
v  11.5000 -15.7500 1.0000
v  11.5000 -15.7500 -1.0000
v  5.0000 -15.0000 2.5000
v  10.0000 -15.0000 2.5000
v  3.2651 -13.5000 -1.0000
v  3.2651 -13.5000 1.0000
v  10.0000 -15.0000 -2.5000
v  5.0000 -15.0000 -2.5000
v  8.6000 -20.0000 -1.0000
v  8.6000 -20.0000 1.0000
v  0.0000 -23.5000 1.0000
v  -0.0000 -23.5000 -1.0000
v  0.0000 -20.0000 2.5000
v  0.0000 -20.0000 -2.5000
v  -3.2650 -13.5000 -1.0000
v  -3.2651 -13.5000 1.0000
v  -5.0000 -15.0000 -2.5000
v  -5.0000 -15.0000 2.5000
v  -10.0000 -15.0000 -2.5000
v  -8.6000 -20.0000 1.0000
v  -8.6000 -20.0000 -1.0000
v  -10.0000 -15.0000 2.5000
v  -3.2650 -6.5000 -1.0000
v  -3.2650 -6.5000 1.0000
v  -5.0000 -5.0000 -2.5000
v  -11.0000 -12.0753 -1.0000
v  -11.0000 -12.0753 1.0000
v  -8.0000 -6.5000 1.0000
v  -8.0000 -6.5000 -1.0000
v  -5.0000 -5.0000 2.5000
v  -11.5000 -15.7500 1.0000
v  -11.5000 -15.7500 -1.0000
v  -5.0000 -3.0000 1.0000
v  -5.0000 -3.0000 -1.0000
v  5.0000 3.0000 -1.0000
v  5.0000 3.0000 1.0000
v  11.5000 15.7500 -1.0000
v  11.5000 15.7500 1.0000
# 88 vertices

vn 0.0000 -0.0000 -1.0000
vn -1.0000 0.0000 0.0000
vn -0.0000 0.0000 1.0000
vn 0.8806 -0.4739 -0.0000
vn 0.0000 0.0000 -1.0000
vn -0.0000 -0.0000 1.0000
vn 0.3770 0.9262 0.0000
vn 0.0000 -1.0000 0.0000
vn 0.0000 -0.0000 1.0000
vn -0.0000 0.0000 -1.0000
vn -0.3770 0.9262 -0.0000
vn 1.0000 0.0000 -0.0000
vn -1.0000 0.0000 -0.0000
vn 0.5395 0.8420 -0.0000
vn -0.5395 -0.8420 0.0000
vn 1.0000 -0.0000 0.0000
vn -1.0000 -0.0000 0.0000
vn 0.3770 -0.9262 0.0000
vn 0.0000 1.0000 -0.0000
vn 0.0000 0.0000 1.0000
vn -0.3770 -0.9262 0.0000
vn -0.8806 0.4738 0.0000
vn 0.8260 -0.5636 0.0000
vn 0.1608 -0.3519 0.9221
vn -0.1608 -0.3519 0.9221
vn -0.1608 -0.3519 -0.9221
vn 0.1608 -0.3519 -0.9221
vn -0.5163 0.2652 0.8143
vn -0.5163 0.2652 -0.8143
vn -0.8260 -0.5636 -0.0000
vn -0.5535 -0.3777 0.7423
vn -0.7280 0.0991 0.6784
vn -0.9909 0.1348 0.0000
vn -0.7280 0.0991 -0.6784
vn -0.5535 -0.3777 -0.7423
vn 0.0000 0.7071 -0.7071
vn 0.0000 0.7071 0.7071
vn 0.6540 -0.0000 0.7565
vn 0.6540 0.0000 -0.7565
vn -0.7593 0.6508 -0.0000
vn -0.5735 0.4915 0.6554
vn 0.7709 0.3822 0.5095
vn 0.8960 0.4441 0.0000
vn 0.7709 0.3822 -0.5095
vn -0.5735 0.4915 -0.6554
vn -0.6540 -0.0000 0.7565
vn -0.6540 -0.0000 -0.7565
vn 0.9487 0.3162 0.0000
vn 0.7071 0.0000 0.7071
vn 0.5535 -0.3777 0.7423
vn 0.5535 -0.3777 -0.7423
vn 0.7071 -0.0000 -0.7071
vn -0.2940 -0.4491 -0.8437
vn -0.2940 -0.4491 0.8437
vn -0.7071 -0.0000 -0.7071
vn -0.8018 -0.2673 -0.5345
vn -0.9487 -0.3162 0.0000
vn -0.8018 -0.2673 0.5345
vn -0.7071 -0.0000 0.7071
vn 0.2940 0.4491 0.8437
vn 0.8018 0.2673 0.5345
vn 0.8018 0.2673 -0.5345
vn 0.2940 0.4491 -0.8437
vn 0.1608 0.3519 -0.9221
vn -0.1608 0.3519 -0.9221
vn -0.5535 0.3777 -0.7423
vn -0.8260 0.5636 -0.0000
vn -0.5535 0.3777 0.7423
vn -0.1608 0.3519 0.9221
vn 0.1608 0.3519 0.9221
vn 0.0000 -0.7071 0.7071
vn -0.0000 -0.7071 -0.7071
vn 0.6540 -0.0000 -0.7565
vn 0.6540 0.0000 0.7565
vn -0.8960 -0.4441 -0.0000
vn -0.6540 0.0000 0.7565
vn -0.7709 -0.3822 0.5095
vn -0.7709 -0.3822 -0.5095
vn 0.7593 -0.6508 -0.0000
vn 0.5735 -0.4915 -0.6554
vn 0.5163 -0.2652 -0.8143
vn 0.5163 -0.2652 0.8143
vn 0.5735 -0.4915 0.6554
vn 0.7280 -0.0990 -0.6784
vn 0.5535 0.3777 -0.7423
vn 0.5535 0.3777 0.7423
vn 0.7280 -0.0990 0.6784
vn 0.9909 -0.1348 0.0000
vn 0.8260 0.5636 0.0000
# 89 vertex normals

vt 0.0000 0.0000 0.0000
vt 1.0000 0.0000 0.0000
vt 1.0000 1.0000 0.0000
vt 0.0000 1.0000 0.0000
# 4 texture coords

g Box001
usemtl wire_088088225
s off
f 1/1/1 2/2/1 3/1/1 
f 4/1/2 5/3/2 6/3/2 7/2/2 
f 8/3/3 9/4/3 10/3/3 
f 11/3/4 12/1/4 13/1/4 14/4/4 
f 3/1/5 2/2/5 15/1/5 
f 10/3/6 9/4/6 16/3/6 
f 17/4/7 18/1/7 19/1/7 20/3/7 
f 7/2/8 6/3/8 21/3/8 22/2/8 
f 10/3/9 16/3/9 23/3/9 
f 15/1/10 2/2/10 24/2/10 
f 23/3/9 16/3/9 25/3/9 
f 20/3/11 19/1/11 26/1/11 27/3/11 
f 15/1/1 24/2/1 28/1/1 
f 22/2/12 21/3/12 29/3/12 30/2/12 
f 23/3/9 25/3/9 31/3/9 32/3/9 
f 33/3/13 34/1/13 35/1/13 36/3/13 
f 28/1/1 24/2/1 37/2/1 38/1/1 
f 30/2/14 29/3/14 39/3/14 40/2/14 
f 32/3/3 31/3/3 41/3/3 42/3/3 
f 43/3/15 44/1/15 45/1/15 46/3/15 
f 38/1/1 37/2/1 47/2/1 48/1/1 
f 49/2/16 50/3/16 51/3/16 52/2/16 
f 42/3/3 41/3/3 53/3/3 54/3/3 
f 46/3/17 45/1/17 55/1/17 56/3/17 
f 48/1/1 47/2/1 57/2/1 58/1/1 
f 59/2/18 60/3/18 61/3/18 62/1/18 
f 54/3/3 53/3/3 63/3/3 
f 58/1/1 57/2/1 64/1/1 
f 56/3/19 55/1/19 65/1/19 66/3/19 
f 58/1/1 64/1/1 67/1/1 
f 63/3/20 53/3/20 68/3/20 
f 67/1/1 64/1/1 69/1/1 
f 62/1/21 61/3/21 70/3/21 71/1/21 
f 63/3/3 68/3/3 72/3/3 
f 66/3/16 65/1/16 73/1/16 74/3/16 
f 67/1/5 69/1/5 75/1/5 
f 76/1/22 77/3/22 78/3/22 79/1/22 
f 72/3/6 68/3/6 80/3/6 
f 52/2/23 51/3/23 60/3/23 59/2/23 
f 54/3/24 63/3/24 61/3/24 60/3/24 
f 63/3/25 72/3/25 70/3/25 61/3/25 
f 69/1/26 64/1/26 62/1/26 71/1/26 
f 64/1/27 57/2/27 59/2/27 62/1/27 
f 72/3/28 80/3/28 78/3/28 77/3/28 
f 75/1/29 69/1/29 76/1/29 79/1/29 
f 71/1/30 70/3/30 81/3/30 82/1/30 
f 70/3/31 72/3/31 81/3/31 
f 72/3/32 77/3/32 81/3/32 
f 77/3/33 76/1/33 82/1/33 81/3/33 
f 76/1/34 69/1/34 82/1/34 
f 69/1/35 71/1/35 82/1/35 
f 58/1/36 67/1/36 65/1/36 55/1/36 
f 68/3/37 53/3/37 56/3/37 66/3/37 
f 80/3/38 68/3/38 66/3/38 74/3/38 
f 67/1/39 75/1/39 73/1/39 65/1/39 
f 79/1/40 78/3/40 83/3/40 84/1/40 
f 78/3/41 80/3/41 83/3/41 
f 80/3/42 74/3/42 83/3/42 
f 74/3/43 73/1/43 84/1/43 83/3/43 
f 73/1/44 75/1/44 84/1/44 
f 75/1/45 79/1/45 84/1/45 
f 53/3/46 41/3/46 46/3/46 56/3/46 
f 48/1/47 58/1/47 55/1/47 45/1/47 
f 40/2/48 39/3/48 50/3/48 49/2/48 
f 42/3/49 54/3/49 51/3/49 50/3/49 
f 54/3/50 60/3/50 51/3/50 
f 59/2/51 57/2/51 52/2/51 
f 57/2/52 47/2/52 49/2/52 52/2/52 
f 38/1/53 48/1/53 45/1/53 44/1/53 
f 41/3/54 31/3/54 43/3/54 46/3/54 
f 28/1/55 38/1/55 35/1/55 34/1/55 
f 38/1/56 44/1/56 35/1/56 
f 44/1/57 43/3/57 36/3/57 35/1/57 
f 43/3/58 31/3/58 36/3/58 
f 31/3/59 25/3/59 33/3/59 36/3/59 
f 32/3/60 42/3/60 39/3/60 29/3/60 
f 42/3/61 50/3/61 39/3/61 
f 49/2/62 47/2/62 40/2/62 
f 47/2/63 37/2/63 30/2/63 40/2/63 
f 3/1/64 15/1/64 19/1/64 18/1/64 
f 15/1/65 28/1/65 26/1/65 19/1/65 
f 28/1/66 34/1/66 26/1/66 
f 34/1/67 33/3/67 27/3/67 26/1/67 
f 33/3/68 25/3/68 27/3/68 
f 25/3/69 16/3/69 20/3/69 27/3/69 
f 16/3/70 9/4/70 17/4/70 20/3/70 
f 10/3/71 23/3/71 21/3/71 6/3/71 
f 24/2/72 2/2/72 7/2/72 22/2/72 
f 37/2/73 24/2/73 22/2/73 30/2/73 
f 23/3/74 32/3/74 29/3/74 21/3/74 
f 85/1/75 86/3/75 5/3/75 4/1/75 
f 8/3/76 10/3/76 6/3/76 5/3/76 
f 2/2/47 1/1/47 4/1/47 7/2/47 
f 8/3/77 5/3/77 86/3/77 
f 4/1/78 1/1/78 85/1/78 
f 86/3/79 85/1/79 12/1/79 11/3/79 
f 85/1/80 1/1/80 12/1/80 
f 1/1/81 3/1/81 13/1/81 12/1/81 
f 9/4/82 8/3/82 11/3/82 14/4/82 
f 8/3/83 86/3/83 11/3/83 
f 13/1/84 3/1/84 87/1/84 
f 3/1/85 18/1/85 87/1/85 
f 17/4/86 9/4/86 88/4/86 
f 9/4/87 14/4/87 88/4/87 
f 14/4/88 13/1/88 87/1/88 88/4/88 
f 18/1/89 17/4/89 88/4/89 87/1/89 
# 66 polygons - 40 triangles

