# 3ds Max Wavefront OBJ Exporter v0.97b - (c)2007 guruware
# ì¬‚µ‚½ƒtƒ@ƒCƒ‹ : 24.04.2019 13:46:37

mtllib Star Hole.mtl

#
# object Cylinder001
#

v  -0.8821 44.6088 -4.4974
v  0.8821 44.6088 -4.4974
v  0.8821 44.5824 4.5000
v  -0.8821 44.5824 4.5000
v  10.8821 14.6088 -4.4974
v  10.8821 14.5824 4.5000
v  41.7888 14.6088 -4.4974
v  41.7888 14.5824 4.5000
v  42.4072 12.6126 -4.4974
v  42.4071 12.5862 4.5000
v  17.0292 -5.1509 -4.4974
v  17.0291 -5.1773 4.5000
v  26.8810 -35.3143 -4.4974
v  26.8810 -35.3407 4.5000
v  24.8611 -37.0371 -4.4974
v  24.8611 -37.0636 4.5000
v  -0.0000 -17.3969 -4.5366
v  -0.0000 -17.4233 4.5000
v  -24.8611 -37.0371 -4.4974
v  -24.8611 -37.0636 4.5000
v  -26.8811 -35.3142 -4.4974
v  -26.8811 -35.3406 4.5000
v  -17.0307 -5.1512 -4.4974
v  -17.0307 -5.1777 4.5000
v  -42.4086 12.6122 -4.4974
v  -42.4086 12.5857 4.5000
v  -41.7896 14.6088 -4.4974
v  -41.7896 14.5824 4.5000
v  -10.8821 14.6088 -4.4974
v  -10.8821 14.5824 4.5000
v  -4.6139 45.8579 -2.1241
v  -0.0000 49.6079 -2.1241
v  -0.0000 47.4654 -3.4987
v  -3.4558 43.7154 -3.4987
v  4.6139 45.8579 -2.1241
v  3.4558 43.7154 -3.4987
v  9.4853 34.6079 -2.1241
v  7.9410 32.4654 -3.4987
v  17.1088 23.3579 -2.1240
v  15.5602 21.2154 -3.4987
v  29.9794 19.6079 -2.1240
v  28.4177 17.4654 -3.4987
v  41.9486 18.4830 -2.1241
v  40.2575 16.7157 -3.4987
v  46.8676 15.1082 -2.1241
v  44.8235 14.4664 -3.4987
v  44.7468 9.5171 -2.1241
v  42.3515 9.9991 -3.4987
v  35.5967 1.7435 -2.1241
v  33.0773 2.5952 -3.4987
v  27.3156 -8.6331 -2.1241
v  24.7944 -7.8050 -3.4987
v  27.8022 -22.0332 -2.1241
v  25.2963 -21.2615 -3.4987
v  30.4938 -34.0369 -2.1241
v  28.3094 -33.0608 -3.4987
v  28.8276 -40.2245 -2.1241
v  27.5605 -38.4893 -3.4987
v  22.8211 -40.2524 -2.1247
v  22.4717 -37.7300 -3.5011
v  12.4913 -33.7768 -2.1268
v  12.4653 -30.9655 -3.5085
v  -0.0000 -28.9132 -2.1282
v  -0.0000 -26.0820 -3.5134
v  -12.4913 -33.7768 -2.1268
v  -12.4653 -30.9655 -3.5085
v  -22.8211 -40.2524 -2.1247
v  -22.4717 -37.7300 -3.5011
v  -28.8277 -40.2245 -2.1241
v  -27.5606 -38.4893 -3.4987
v  -30.4940 -34.0369 -2.1241
v  -28.3097 -33.0608 -3.4987
v  -27.8029 -22.0334 -2.1241
v  -25.2971 -21.2617 -3.4987
v  -27.3169 -8.6334 -2.1241
v  -24.7958 -7.8053 -3.4987
v  -35.5984 1.7433 -2.1241
v  -33.0789 2.5949 -3.4987
v  -44.7485 9.5170 -2.1241
v  -42.3530 9.9989 -3.4987
v  -46.8686 15.1081 -2.1241
v  -44.8245 14.4663 -3.4987
v  -41.9489 18.4830 -2.1241
v  -40.2580 16.7157 -3.4987
v  -29.9795 19.6079 -2.1241
v  -28.4179 17.4654 -3.4987
v  -17.1088 23.3579 -2.1241
v  -15.5603 21.2154 -3.4987
v  -9.4853 34.6079 -2.1241
v  -7.9410 32.4654 -3.4987
v  4.6139 45.8546 2.1287
v  -0.0000 49.6046 2.1287
v  -0.0000 47.4522 3.5025
v  3.4558 43.7022 3.5025
v  -4.6139 45.8546 2.1287
v  -3.4558 43.7022 3.5025
v  -9.4853 34.6046 2.1287
v  -7.9410 32.4522 3.5025
v  -17.1088 23.3546 2.1287
v  -15.5603 21.2022 3.5025
v  -29.9795 19.6046 2.1287
v  -28.4179 17.4522 3.5025
v  -41.9489 18.4797 2.1287
v  -40.2580 16.7024 3.5025
v  -46.8686 15.1048 2.1287
v  -44.8245 14.4531 3.5025
v  -44.7485 9.5137 2.1287
v  -42.3530 9.9857 3.5025
v  -35.5984 1.7400 2.1287
v  -33.0789 2.5817 3.5025
v  -27.3169 -8.6367 2.1287
v  -24.7958 -7.8186 3.5025
v  -27.8029 -22.0367 2.1287
v  -25.2971 -21.2749 3.5025
v  -30.4940 -34.0403 2.1287
v  -28.3097 -33.0740 3.5025
v  -28.8277 -40.2278 2.1287
v  -27.5606 -38.5025 3.5025
v  -22.8211 -40.2557 2.1283
v  -22.4717 -37.7432 3.5022
v  -12.4913 -33.7801 2.1269
v  -12.4653 -30.9787 3.5012
v  -0.0000 -28.9165 2.1259
v  -0.0000 -26.0952 3.5006
v  12.4913 -33.7801 2.1269
v  12.4653 -30.9787 3.5012
v  22.8211 -40.2557 2.1283
v  22.4717 -37.7432 3.5022
v  28.8276 -40.2278 2.1287
v  27.5605 -38.5025 3.5025
v  30.4938 -34.0402 2.1287
v  28.3094 -33.0740 3.5025
v  27.8022 -22.0365 2.1287
v  25.2963 -21.2747 3.5025
v  27.3156 -8.6364 2.1287
v  24.7944 -7.8182 3.5025
v  35.5967 1.7402 2.1287
v  33.0773 2.5820 3.5025
v  44.7468 9.5138 2.1287
v  42.3515 9.9859 3.5025
v  46.8676 15.1049 2.1287
v  44.8235 14.4532 3.5025
v  41.9485 18.4797 2.1287
v  40.2575 16.7025 3.5025
v  29.9794 19.6046 2.1287
v  28.4177 17.4522 3.5025
v  17.1088 23.3546 2.1287
v  15.5602 21.2022 3.5025
v  9.4853 34.6046 2.1287
v  7.9410 32.4522 3.5025
v  -0.0000 50.3221 0.0025
v  5.0000 46.5721 0.0025
v  -5.0000 46.5721 0.0025
v  -10.0000 35.3221 0.0025
v  -17.6250 24.0721 0.0025
v  -30.5000 20.3221 0.0025
v  -42.5125 19.0721 0.0025
v  -47.5500 15.3221 0.0025
v  -45.5471 9.3564 0.0025
v  -36.4382 1.4594 0.0025
v  -28.1573 -8.9095 0.0025
v  -28.6382 -22.2906 0.0025
v  -31.2221 -34.3623 0.0025
v  -29.2500 -40.8029 0.0025
v  -22.9375 -41.0932 0.0022
v  -12.5000 -34.7140 0.0012
v  -0.0000 -29.8570 0.0006
v  12.5000 -34.7140 0.0012
v  22.9375 -41.0932 0.0022
v  29.2500 -40.8029 0.0025
v  31.2219 -34.3623 0.0025
v  28.6375 -22.2904 0.0025
v  28.1560 -8.9092 0.0025
v  36.4365 1.4596 0.0025
v  45.5453 9.3565 0.0025
v  47.5490 15.3221 0.0025
v  42.5122 19.0721 0.0025
v  30.5000 20.3221 0.0025
v  17.6250 24.0721 0.0025
v  10.0000 35.3221 0.0025
# 180 vertices

vn -0.0000 -1.0000 -0.0029
vn -0.9487 -0.3162 -0.0009
vn -0.9552 -0.2959 -0.0009
vn -0.5734 0.8192 0.0024
vn -0.9506 -0.3105 -0.0009
vn -0.6489 0.7608 0.0022
vn 0.6199 0.7847 0.0023
vn -0.6199 0.7847 0.0023
vn 0.6489 0.7608 0.0022
vn 0.9506 -0.3104 -0.0009
vn 0.5734 0.8192 0.0024
vn 0.9552 -0.2961 -0.0009
vn 0.9487 -0.3162 -0.0009
vn -0.3904 0.4201 -0.8192
vn 0.3904 0.4201 -0.8192
vn 0.0000 0.3300 -0.9440
vn 0.4508 0.4154 -0.7901
vn -0.4508 0.4154 -0.7901
vn 0.5108 0.2124 -0.8331
vn 0.4011 0.2717 -0.8748
vn 0.3131 0.1044 -0.9440
vn 0.1082 0.0733 -0.9914
vn 0.4052 0.1616 -0.8998
vn 0.1352 0.4637 -0.8756
vn 0.0433 0.5503 -0.8338
vn -0.0000 0.3300 -0.9440
vn 0.0282 0.4448 -0.8952
vn 0.0362 0.1242 -0.9916
vn 0.2900 0.4891 -0.8226
vn 0.5177 -0.2364 -0.8223
vn 0.3152 0.0977 -0.9440
vn 0.5551 -0.3072 -0.7729
vn 0.2808 0.5701 -0.7721
vn 0.3509 -0.4260 -0.8339
vn 0.3774 -0.3009 -0.8758
vn 0.1892 -0.2704 -0.9440
vn 0.1003 -0.0798 -0.9918
vn 0.2779 -0.3481 -0.8953
vn 0.4841 0.0178 -0.8748
vn 0.5367 0.1286 -0.8339
vn 0.3137 0.1025 -0.9440
vn 0.4432 0.1132 -0.8893
vn 0.1292 0.0048 -0.9916
vn 0.5611 -0.1167 -0.8195
vn -0.0362 -0.5520 -0.8331
vn 0.2142 -0.2511 -0.9440
vn -0.1019 -0.6853 -0.7211
vn 0.6635 -0.0915 -0.7425
vn -0.2959 -0.4551 -0.8398
vn -0.1695 -0.4345 -0.8846
vn -0.2009 -0.2562 -0.9455
vn -0.0454 -0.1169 -0.9921
vn -0.2585 -0.3834 -0.8867
vn 0.1695 -0.4345 -0.8846
vn 0.2959 -0.4551 -0.8398
vn 0.2009 -0.2562 -0.9455
vn 0.2585 -0.3834 -0.8867
vn 0.0454 -0.1169 -0.9921
vn 0.0362 -0.5520 -0.8331
vn -0.5611 -0.1167 -0.8195
vn -0.2142 -0.2511 -0.9440
vn -0.6635 -0.0916 -0.7425
vn 0.1019 -0.6853 -0.7210
vn -0.5367 0.1286 -0.8339
vn -0.4841 0.0178 -0.8748
vn -0.3137 0.1025 -0.9440
vn -0.1292 0.0048 -0.9916
vn -0.4432 0.1132 -0.8893
vn -0.3774 -0.3009 -0.8758
vn -0.3509 -0.4260 -0.8339
vn -0.1892 -0.2704 -0.9440
vn -0.2779 -0.3481 -0.8953
vn -0.1003 -0.0799 -0.9918
vn -0.5177 -0.2363 -0.8223
vn -0.2900 0.4891 -0.8226
vn -0.3152 0.0977 -0.9440
vn -0.2808 0.5701 -0.7721
vn -0.5552 -0.3072 -0.7729
vn -0.0433 0.5503 -0.8338
vn -0.1352 0.4637 -0.8756
vn -0.0362 0.1242 -0.9916
vn -0.0282 0.4448 -0.8952
vn -0.4011 0.2717 -0.8748
vn -0.5108 0.2124 -0.8331
vn -0.3131 0.1044 -0.9440
vn -0.4052 0.1616 -0.8998
vn -0.1082 0.0733 -0.9914
vn 0.3893 0.4189 0.8204
vn -0.3893 0.4189 0.8204
vn -0.0000 0.3283 0.9446
vn -0.4485 0.4133 0.7925
vn 0.4485 0.4133 0.7925
vn -0.5099 0.2120 0.8337
vn -0.4002 0.2711 0.8754
vn -0.3123 0.1041 0.9442
vn -0.1080 0.0731 0.9915
vn -0.4041 0.1611 0.9004
vn -0.1347 0.4621 0.8765
vn -0.0432 0.5482 0.8352
vn 0.0000 0.3283 0.9446
vn -0.0280 0.4421 0.8965
vn -0.0361 0.1239 0.9916
vn -0.2890 0.4875 0.8239
vn -0.5182 -0.2366 0.8219
vn -0.3145 0.0975 0.9442
vn -0.5566 -0.3079 0.7716
vn -0.2790 0.5664 0.7755
vn -0.3516 -0.4269 0.8331
vn -0.3779 -0.3013 0.8754
vn -0.1897 -0.2710 0.9437
vn -0.1002 -0.0798 0.9918
vn -0.2788 -0.3492 0.8946
vn -0.4838 0.0178 0.8750
vn -0.5361 0.1285 0.8343
vn -0.3130 0.1022 0.9442
vn -0.4422 0.1129 0.8898
vn -0.1290 0.0048 0.9916
vn -0.5613 -0.1167 0.8194
vn 0.0365 -0.5534 0.8321
vn -0.2146 -0.2516 0.9437
vn 0.1030 -0.6899 0.7165
vn -0.6637 -0.0916 0.7424
vn 0.2964 -0.4552 0.8396
vn 0.1694 -0.4335 0.8851
vn 0.2013 -0.2548 0.9458
vn 0.0449 -0.1144 0.9924
vn 0.2603 -0.3849 0.8855
vn -0.1694 -0.4335 0.8851
vn -0.2964 -0.4552 0.8396
vn -0.2013 -0.2548 0.9458
vn -0.2603 -0.3849 0.8855
vn -0.0449 -0.1144 0.9924
vn -0.0365 -0.5534 0.8321
vn 0.5613 -0.1167 0.8194
vn 0.2146 -0.2516 0.9437
vn 0.6637 -0.0916 0.7424
vn -0.1030 -0.6899 0.7165
vn 0.5361 0.1285 0.8343
vn 0.4838 0.0178 0.8750
vn 0.3130 0.1022 0.9442
vn 0.1290 0.0048 0.9916
vn 0.4422 0.1129 0.8898
vn 0.3779 -0.3013 0.8754
vn 0.3516 -0.4269 0.8331
vn 0.1897 -0.2710 0.9437
vn 0.2787 -0.3492 0.8946
vn 0.1002 -0.0798 0.9918
vn 0.5182 -0.2366 0.8219
vn 0.2890 0.4875 0.8239
vn 0.3145 0.0974 0.9442
vn 0.2790 0.5664 0.7755
vn 0.5565 -0.3079 0.7717
vn 0.0432 0.5482 0.8352
vn 0.1347 0.4621 0.8765
vn 0.0361 0.1239 0.9916
vn 0.0280 0.4420 0.8966
vn 0.4002 0.2711 0.8754
vn 0.5099 0.2120 0.8337
vn 0.3123 0.1041 0.9442
vn 0.4041 0.1611 0.9004
vn 0.1080 0.0731 0.9915
vn 0.5857 0.7508 -0.3053
vn -0.5857 0.7508 -0.3053
vn -0.5855 0.7505 0.3064
vn 0.5855 0.7505 0.3064
vn -0.8699 0.3817 -0.3124
vn -0.7715 0.5228 -0.3626
vn -0.7712 0.5227 0.3633
vn -0.8697 0.3816 0.3130
vn -0.2605 0.8943 -0.3638
vn -0.0936 0.9450 -0.3134
vn -0.0935 0.9445 0.3148
vn -0.2604 0.8938 0.3651
vn -0.5536 0.7737 -0.3081
vn -0.8961 -0.3197 -0.3078
vn -0.8963 -0.3198 0.3074
vn -0.5534 0.7734 0.3093
vn -0.6184 -0.7206 -0.3135
vn -0.7279 -0.5811 -0.3641
vn -0.7281 -0.5813 0.3633
vn -0.6186 -0.7208 0.3126
vn -0.9313 0.0336 -0.3627
vn -0.9277 0.2033 -0.3132
vn -0.9276 0.2032 0.3135
vn -0.9313 0.0336 0.3628
vn -0.9155 -0.2638 -0.3037
vn -0.0245 -0.9474 -0.3192
vn -0.0245 -0.9478 0.3180
vn -0.9156 -0.2638 0.3034
vn 0.4983 -0.8051 -0.3218
vn 0.3353 -0.8620 -0.3802
vn 0.3354 -0.8623 0.3795
vn 0.4985 -0.8053 0.3208
vn -0.3353 -0.8620 -0.3802
vn -0.4983 -0.8051 -0.3218
vn -0.4985 -0.8053 0.3208
vn -0.3354 -0.8623 0.3795
vn 0.0245 -0.9474 -0.3192
vn 0.9155 -0.2638 -0.3037
vn 0.9156 -0.2638 0.3034
vn 0.0245 -0.9478 0.3179
vn 0.9277 0.2033 -0.3132
vn 0.9313 0.0337 -0.3627
vn 0.9313 0.0337 0.3628
vn 0.9276 0.2033 0.3135
vn 0.7279 -0.5811 -0.3641
vn 0.6184 -0.7206 -0.3135
vn 0.6186 -0.7208 0.3126
vn 0.7281 -0.5813 0.3633
vn 0.8961 -0.3198 -0.3078
vn 0.5537 0.7736 -0.3081
vn 0.5534 0.7733 0.3093
vn 0.8962 -0.3198 0.3074
vn 0.0936 0.9450 -0.3134
vn 0.2605 0.8943 -0.3638
vn 0.2604 0.8938 0.3651
vn 0.0935 0.9445 0.3148
vn 0.7715 0.5228 -0.3626
vn 0.8699 0.3817 -0.3124
vn 0.8697 0.3816 0.3130
vn 0.7712 0.5227 0.3633
# 221 vertex normals

vt 0.2061 0.0955 0.2500
vt 0.7939 0.0955 0.2500
vt 0.9755 0.6545 0.2500
vt 0.5000 1.0000 0.2500
vt 0.0245 0.6545 0.2500
vt 0.4020 -0.5075 -0.2500
vt 0.5000 -0.5075 -0.2500
vt 0.4020 -0.4321 -0.2500
vt 0.5980 -0.5075 -0.2500
vt 0.5980 -0.4321 -0.2500
vt 0.6959 -0.2060 -0.2500
vt 0.7939 0.0955 -0.2500
vt 0.8474 0.0205 -0.2500
vt 1.1059 0.0970 -0.2500
vt 1.4180 0.0985 -0.2500
vt 1.3480 0.1233 -0.2500
vt 1.4501 0.1993 -0.2500
vt 1.4821 0.3001 -0.2500
vt 1.4108 0.3192 -0.2500
vt 1.2288 0.4773 -0.2500
vt 0.9755 0.6545 -0.2500
vt 1.0640 0.6853 -0.2500
vt 1.0761 0.9547 -0.2500
vt 1.1767 1.2549 -0.2500
vt 1.1303 1.1980 -0.2500
vt 1.0917 1.3275 -0.2500
vt 1.0068 1.4000 -0.2500
vt 0.9647 1.3319 -0.2500
vt 0.7534 1.2000 -0.2500
vt 0.5000 1.0000 -0.2500
vt 0.5000 1.1000 -0.2500
vt 0.2466 1.2000 -0.2500
vt -0.0068 1.4000 -0.2500
vt 0.0353 1.3319 -0.2500
vt -0.0917 1.3274 -0.2500
vt -0.1766 1.2549 -0.2500
vt -0.1302 1.1980 -0.2500
vt -0.0761 0.9547 -0.2500
vt 0.0245 0.6545 -0.2500
vt -0.0640 0.6853 -0.2500
vt -0.2288 0.4773 -0.2500
vt -0.4821 0.3001 -0.2500
vt -0.4108 0.3192 -0.2500
vt -0.4500 0.1993 -0.2500
vt -0.4179 0.0985 -0.2500
vt -0.3479 0.1233 -0.2500
vt -0.1059 0.0970 -0.2500
vt 0.2061 0.0955 -0.2500
vt 0.1526 0.0205 -0.2500
vt 0.3041 -0.2060 -0.2500
vt 0.7204 0.0955 0.2500
vt 0.5000 0.0955 0.2500
vt 0.2796 0.0955 0.2500
vt 0.1834 0.1654 0.2500
vt 0.1153 0.3750 0.2500
vt 0.0472 0.5846 0.2500
vt 0.0839 0.6977 0.2500
vt 0.2622 0.8273 0.2500
vt 0.4406 0.9568 0.2500
vt 0.5594 0.9568 0.2500
vt 0.7378 0.8273 0.2500
vt 0.9161 0.6977 0.2500
vt 0.9528 0.5846 0.2500
vt 0.8847 0.3750 0.2500
vt 0.8166 0.1654 0.2500
# 65 texture coords

g Cylinder001
usemtl wire_135110008
s off
f 1/1/1 2/2/1 3/2/1 4/1/1 
f 2/2/2 5/2/2 6/2/2 3/2/2 
f 5/2/1 7/2/1 8/2/1 6/2/1 
f 7/2/3 9/3/3 10/3/3 8/2/3 
f 9/3/4 11/3/4 12/3/4 10/3/4 
f 11/3/5 13/3/5 14/3/5 12/3/5 
f 13/3/6 15/4/6 16/4/6 14/3/6 
f 15/4/7 17/4/7 18/4/7 16/4/7 
f 17/4/8 19/4/8 20/4/8 18/4/8 
f 19/4/9 21/5/9 22/5/9 20/4/9 
f 21/5/10 23/5/10 24/5/10 22/5/10 
f 23/5/11 25/5/11 26/5/11 24/5/11 
f 25/5/12 27/1/12 28/1/12 26/5/12 
f 27/1/1 29/1/1 30/1/1 28/1/1 
f 29/1/13 1/1/13 4/1/13 30/1/13 
f 31/6/14 32/7/14 33/7/14 34/8/14 
f 35/9/15 36/10/15 33/7/15 32/7/15 
f 2/9/16 1/6/16 33/7/16 
f 36/10/17 2/9/17 33/7/17 
f 1/6/18 34/8/18 33/7/18 
f 35/9/19 37/11/19 38/11/19 36/10/19 
f 39/12/20 40/13/20 38/11/20 37/11/20 
f 5/12/21 2/9/21 38/11/21 
f 40/13/22 5/12/22 38/11/22 
f 2/9/23 36/10/23 38/11/23 
f 39/12/24 41/14/24 42/14/24 40/13/24 
f 43/15/25 44/16/25 42/14/25 41/14/25 
f 7/15/26 5/12/26 42/14/26 
f 44/16/27 7/15/27 42/14/27 
f 5/12/28 40/13/28 42/14/28 
f 43/15/29 45/17/29 46/17/29 44/16/29 
f 47/18/30 48/19/30 46/17/30 45/17/30 
f 9/18/31 7/15/31 46/17/31 
f 48/19/32 9/18/32 46/17/32 
f 7/15/33 44/16/33 46/17/33 
f 47/18/34 49/20/34 50/20/34 48/19/34 
f 51/21/35 52/22/35 50/20/35 49/20/35 
f 11/21/36 9/18/36 50/20/36 
f 52/22/37 11/21/37 50/20/37 
f 9/18/38 48/19/38 50/20/38 
f 51/21/39 53/23/39 54/23/39 52/22/39 
f 55/24/40 56/25/40 54/23/40 53/23/40 
f 13/24/41 11/21/41 54/23/41 
f 56/25/42 13/24/42 54/23/42 
f 11/21/43 52/22/43 54/23/43 
f 55/24/44 57/26/44 58/26/44 56/25/44 
f 59/27/45 60/28/45 58/26/45 57/26/45 
f 15/27/46 13/24/46 58/26/46 
f 60/28/47 15/27/47 58/26/47 
f 13/24/48 56/25/48 58/26/48 
f 59/27/49 61/29/49 62/29/49 60/28/49 
f 63/30/50 64/31/50 62/29/50 61/29/50 
f 17/30/51 15/27/51 62/29/51 
f 64/31/52 17/30/52 62/29/52 
f 15/27/53 60/28/53 62/29/53 
f 63/30/54 65/32/54 66/32/54 64/31/54 
f 67/33/55 68/34/55 66/32/55 65/32/55 
f 19/33/56 17/30/56 66/32/56 
f 68/34/57 19/33/57 66/32/57 
f 17/30/58 64/31/58 66/32/58 
f 67/33/59 69/35/59 70/35/59 68/34/59 
f 71/36/60 72/37/60 70/35/60 69/35/60 
f 21/36/61 19/33/61 70/35/61 
f 72/37/62 21/36/62 70/35/62 
f 19/33/63 68/34/63 70/35/63 
f 71/36/64 73/38/64 74/38/64 72/37/64 
f 75/39/65 76/40/65 74/38/65 73/38/65 
f 23/39/66 21/36/66 74/38/66 
f 76/40/67 23/39/67 74/38/67 
f 21/36/68 72/37/68 74/38/68 
f 75/39/69 77/41/69 78/41/69 76/40/69 
f 79/42/70 80/43/70 78/41/70 77/41/70 
f 25/42/71 23/39/71 78/41/71 
f 80/43/72 25/42/72 78/41/72 
f 23/39/73 76/40/73 78/41/73 
f 79/42/74 81/44/74 82/44/74 80/43/74 
f 83/45/75 84/46/75 82/44/75 81/44/75 
f 27/45/76 25/42/76 82/44/76 
f 84/46/77 27/45/77 82/44/77 
f 25/42/78 80/43/78 82/44/78 
f 83/45/79 85/47/79 86/47/79 84/46/79 
f 87/48/80 88/49/80 86/47/80 85/47/80 
f 29/48/26 27/45/26 86/47/26 
f 88/49/81 29/48/81 86/47/81 
f 27/45/82 84/46/82 86/47/82 
f 87/48/83 89/50/83 90/50/83 88/49/83 
f 31/6/84 34/8/84 90/50/84 89/50/84 
f 1/6/85 29/48/85 90/50/85 
f 34/8/86 1/6/86 90/50/86 
f 29/48/87 88/49/87 90/50/87 
f 91/51/88 92/52/88 93/52/88 94/51/88 
f 95/53/89 96/53/89 93/52/89 92/52/89 
f 4/1/90 3/2/90 93/52/90 
f 96/53/91 4/1/91 93/52/91 
f 3/2/92 94/51/92 93/52/92 
f 95/53/93 97/1/93 98/1/93 96/53/93 
f 99/1/94 100/1/94 98/1/94 97/1/94 
f 30/1/95 4/1/95 98/1/95 
f 100/1/96 30/1/96 98/1/96 
f 4/1/97 96/53/97 98/1/97 
f 99/1/98 101/1/98 102/1/98 100/1/98 
f 103/54/99 104/54/99 102/1/99 101/1/99 
f 28/1/100 30/1/100 102/1/100 
f 104/54/101 28/1/101 102/1/101 
f 30/1/102 100/1/102 102/1/102 
f 103/54/103 105/55/103 106/55/103 104/54/103 
f 107/56/104 108/56/104 106/55/104 105/55/104 
f 26/5/105 28/1/105 106/55/105 
f 108/56/106 26/5/106 106/55/106 
f 28/1/107 104/54/107 106/55/107 
f 107/56/108 109/5/108 110/5/108 108/56/108 
f 111/5/109 112/5/109 110/5/109 109/5/109 
f 24/5/110 26/5/110 110/5/110 
f 112/5/111 24/5/111 110/5/111 
f 26/5/112 108/56/112 110/5/112 
f 111/5/113 113/5/113 114/5/113 112/5/113 
f 115/57/114 116/57/114 114/5/114 113/5/114 
f 22/5/115 24/5/115 114/5/115 
f 116/57/116 22/5/116 114/5/116 
f 24/5/117 112/5/117 114/5/117 
f 115/57/118 117/58/118 118/58/118 116/57/118 
f 119/59/119 120/59/119 118/58/119 117/58/119 
f 20/4/120 22/5/120 118/58/120 
f 120/59/121 20/4/121 118/58/121 
f 22/5/122 116/57/122 118/58/122 
f 119/59/123 121/4/123 122/4/123 120/59/123 
f 123/4/124 124/4/124 122/4/124 121/4/124 
f 18/4/125 20/4/125 122/4/125 
f 124/4/126 18/4/126 122/4/126 
f 20/4/127 120/59/127 122/4/127 
f 123/4/128 125/4/128 126/4/128 124/4/128 
f 127/60/129 128/60/129 126/4/129 125/4/129 
f 16/4/130 18/4/130 126/4/130 
f 128/60/131 16/4/131 126/4/131 
f 18/4/132 124/4/132 126/4/132 
f 127/60/133 129/61/133 130/61/133 128/60/133 
f 131/62/134 132/62/134 130/61/134 129/61/134 
f 14/3/135 16/4/135 130/61/135 
f 132/62/136 14/3/136 130/61/136 
f 16/4/137 128/60/137 130/61/137 
f 131/62/138 133/3/138 134/3/138 132/62/138 
f 135/3/139 136/3/139 134/3/139 133/3/139 
f 12/3/140 14/3/140 134/3/140 
f 136/3/141 12/3/141 134/3/141 
f 14/3/142 132/62/142 134/3/142 
f 135/3/143 137/3/143 138/3/143 136/3/143 
f 139/63/144 140/63/144 138/3/144 137/3/144 
f 10/3/145 12/3/145 138/3/145 
f 140/63/146 10/3/146 138/3/146 
f 12/3/147 136/3/147 138/3/147 
f 139/63/148 141/64/148 142/64/148 140/63/148 
f 143/65/149 144/65/149 142/64/149 141/64/149 
f 8/2/150 10/3/150 142/64/150 
f 144/65/151 8/2/151 142/64/151 
f 10/3/152 140/63/152 142/64/152 
f 143/65/153 145/2/153 146/2/153 144/65/153 
f 147/2/154 148/2/154 146/2/154 145/2/154 
f 6/2/100 8/2/100 146/2/100 
f 148/2/155 6/2/155 146/2/155 
f 8/2/156 144/65/156 146/2/156 
f 147/2/157 149/2/157 150/2/157 148/2/157 
f 91/51/158 94/51/158 150/2/158 149/2/158 
f 3/2/159 6/2/159 150/2/159 
f 94/51/160 3/2/160 150/2/160 
f 6/2/161 148/2/161 150/2/161 
f 35/2/162 32/52/162 151/52/162 152/51/162 
f 31/1/163 153/53/163 151/52/163 32/52/163 
f 95/53/164 92/52/164 151/52/164 153/53/164 
f 91/51/165 152/51/165 151/52/165 92/52/165 
f 31/1/166 89/1/166 154/1/166 153/53/166 
f 87/1/167 155/1/167 154/1/167 89/1/167 
f 99/1/168 97/1/168 154/1/168 155/1/168 
f 95/53/169 153/53/169 154/1/169 97/1/169 
f 87/1/170 85/1/170 156/1/170 155/1/170 
f 83/1/171 157/54/171 156/1/171 85/1/171 
f 103/54/172 101/1/172 156/1/172 157/54/172 
f 99/1/173 155/1/173 156/1/173 101/1/173 
f 83/1/174 81/55/174 158/55/174 157/54/174 
f 79/5/175 159/56/175 158/55/175 81/55/175 
f 107/56/176 105/55/176 158/55/176 159/56/176 
f 103/54/177 157/54/177 158/55/177 105/55/177 
f 79/5/178 77/5/178 160/5/178 159/56/178 
f 75/5/179 161/5/179 160/5/179 77/5/179 
f 111/5/180 109/5/180 160/5/180 161/5/180 
f 107/56/181 159/56/181 160/5/181 109/5/181 
f 75/5/182 73/5/182 162/5/182 161/5/182 
f 71/5/183 163/57/183 162/5/183 73/5/183 
f 115/57/184 113/5/184 162/5/184 163/57/184 
f 111/5/185 161/5/185 162/5/185 113/5/185 
f 71/5/186 69/58/186 164/58/186 163/57/186 
f 67/4/187 165/59/187 164/58/187 69/58/187 
f 119/59/188 117/58/188 164/58/188 165/59/188 
f 115/57/189 163/57/189 164/58/189 117/58/189 
f 67/4/190 65/4/190 166/4/190 165/59/190 
f 63/4/191 167/4/191 166/4/191 65/4/191 
f 123/4/192 121/4/192 166/4/192 167/4/192 
f 119/59/193 165/59/193 166/4/193 121/4/193 
f 63/4/194 61/4/194 168/4/194 167/4/194 
f 59/4/195 169/60/195 168/4/195 61/4/195 
f 127/60/196 125/4/196 168/4/196 169/60/196 
f 123/4/197 167/4/197 168/4/197 125/4/197 
f 59/4/198 57/61/198 170/61/198 169/60/198 
f 55/3/199 171/62/199 170/61/199 57/61/199 
f 131/62/200 129/61/200 170/61/200 171/62/200 
f 127/60/201 169/60/201 170/61/201 129/61/201 
f 55/3/202 53/3/202 172/3/202 171/62/202 
f 51/3/203 173/3/203 172/3/203 53/3/203 
f 135/3/204 133/3/204 172/3/204 173/3/204 
f 131/62/205 171/62/205 172/3/205 133/3/205 
f 51/3/206 49/3/206 174/3/206 173/3/206 
f 47/3/207 175/63/207 174/3/207 49/3/207 
f 139/63/208 137/3/208 174/3/208 175/63/208 
f 135/3/209 173/3/209 174/3/209 137/3/209 
f 47/3/210 45/64/210 176/64/210 175/63/210 
f 43/2/211 177/65/211 176/64/211 45/64/211 
f 143/65/212 141/64/212 176/64/212 177/65/212 
f 139/63/213 175/63/213 176/64/213 141/64/213 
f 43/2/214 41/2/214 178/2/214 177/65/214 
f 39/2/215 179/2/215 178/2/215 41/2/215 
f 147/2/216 145/2/216 178/2/216 179/2/216 
f 143/65/217 177/65/217 178/2/217 145/2/217 
f 39/2/218 37/2/218 180/2/218 179/2/218 
f 35/2/219 152/51/219 180/2/219 37/2/219 
f 91/51/220 149/2/220 180/2/220 152/51/220 
f 147/2/221 179/2/221 180/2/221 149/2/221 
# 135 polygons - 90 triangles

