# 3ds Max Wavefront OBJ Exporter v0.97b - (c)2007 guruware
# ì¬‚µ‚½ƒtƒ@ƒCƒ‹ : 24.04.2019 14:16:01

mtllib Star.mtl

#
# object Cylinder001
#

v  6.2500 -8.9500 -0.0663
v  6.7000 -8.5000 -0.0663
v  6.7000 -8.5000 0.0663
v  6.2500 -8.9500 0.0663
v  10.3000 2.8000 -0.2831
v  10.0250 3.7500 -0.2831
v  10.0250 3.7500 0.2831
v  10.3000 2.8000 0.2831
v  0.2500 10.7500 -0.0663
v  -0.2500 10.7500 -0.0663
v  -0.2500 10.7500 0.0663
v  0.2500 10.7500 0.0663
v  -10.0250 3.7500 -0.0663
v  -10.3000 2.8000 -0.0663
v  -10.3000 2.8000 0.0663
v  -10.0250 3.7500 0.0663
v  -6.7000 -8.5000 -0.0663
v  -6.2500 -8.9500 -0.0663
v  -6.2500 -8.9500 0.0663
v  -6.7000 -8.5000 0.0663
v  -3.0000 4.0000 -0.5000
v  -3.0000 4.0000 0.5000
v  -1.0000 10.0000 0.5000
v  -1.0000 10.0000 -0.5000
v  3.0000 4.0000 0.5000
v  3.0000 4.0000 -0.5000
v  1.0000 10.0000 -0.5000
v  1.0000 10.0000 0.5000
v  -4.7553 -1.5451 -0.5000
v  -4.7553 -1.5451 0.5000
v  -9.8200 2.0000 0.5000
v  -9.8200 2.0000 -0.5000
v  -9.2000 4.0000 -0.5000
v  -9.2000 4.0000 0.5000
v  -0.0000 -5.0000 -0.5000
v  -0.0000 -5.0000 0.5000
v  -5.0000 -8.9500 0.5000
v  -5.0000 -8.9500 -0.5000
v  -6.7000 -7.5000 -0.5000
v  -6.7000 -7.5000 0.5000
v  4.7550 -1.5450 -0.5000
v  4.7550 -1.5450 0.5000
v  6.7000 -7.5000 0.5000
v  6.7000 -7.5000 -0.5000
v  5.0000 -8.9500 -0.5000
v  5.0000 -8.9500 0.5000
v  9.2000 4.0000 0.5000
v  9.2000 4.0000 -0.5000
v  9.8196 2.0000 -0.5000
v  9.8196 2.0000 0.5000
v  -4.5008 -1.4910 -1.2778
v  -4.6259 0.4400 -1.3750
v  -0.0001 -0.0581 -1.5000
v  -3.4605 -3.1492 -1.3750
v  -6.9567 1.5958 -1.2778
v  -6.4511 2.0215 -1.3750
v  -6.6200 2.6763 -1.2778
v  -4.0545 2.2713 -1.3750
v  -2.8150 3.7873 -1.2778
v  -0.9853 4.5213 -1.3750
v  -0.5686 7.1207 -1.2778
v  -0.0000 6.7713 -1.3750
v  0.5686 7.1207 -1.2778
v  0.9852 4.5213 -1.3750
v  2.8150 3.7873 -1.2778
v  4.0544 2.2713 -1.3750
v  6.6199 2.6763 -1.2778
v  6.4510 2.0216 -1.3750
v  6.9564 1.5958 -1.2778
v  4.6257 0.4400 -1.3750
v  4.5005 -1.4909 -1.2778
v  3.4603 -3.1492 -1.3750
v  4.6420 -5.5095 -1.2778
v  3.9651 -5.6049 -1.3750
v  3.6998 -6.2332 -1.2778
v  1.8663 -4.3288 -1.3750
v  -0.0000 -4.7907 -1.2778
v  -1.8663 -4.3288 -1.3750
v  -3.6998 -6.2332 -1.2778
v  -3.9652 -5.6049 -1.3750
v  -4.6421 -5.5095 -1.2778
v  -0.0000 -4.7907 1.2778
v  1.8663 -4.3288 1.3750
v  -0.0001 -0.0581 1.5000
v  -1.8663 -4.3288 1.3750
v  3.6998 -6.2332 1.2778
v  3.9651 -5.6049 1.3750
v  4.6420 -5.5095 1.2778
v  3.4603 -3.1492 1.3750
v  4.5005 -1.4909 1.2778
v  4.6257 0.4400 1.3750
v  6.9564 1.5958 1.2778
v  6.4510 2.0216 1.3750
v  6.6199 2.6763 1.2778
v  4.0544 2.2713 1.3750
v  2.8150 3.7873 1.2778
v  0.9852 4.5213 1.3750
v  0.5686 7.1207 1.2778
v  -0.0000 6.7713 1.3750
v  -0.5686 7.1207 1.2778
v  -0.9853 4.5213 1.3750
v  -2.8150 3.7873 1.2778
v  -4.0545 2.2713 1.3750
v  -6.6200 2.6763 1.2778
v  -6.4511 2.0215 1.3750
v  -6.9567 1.5958 1.2778
v  -4.6259 0.4400 1.3750
v  -4.5008 -1.4910 1.2778
v  -3.4605 -3.1492 1.3750
v  -4.6421 -5.5095 1.2778
v  -3.9652 -5.6049 1.3750
v  -3.6998 -6.2332 1.2778
v  0.0000 9.4287 -1.0000
v  -0.6912 8.6787 -1.0000
v  0.6912 8.6787 -1.0000
v  1.5882 6.4287 -1.0000
v  3.1120 4.1787 -1.0000
v  5.6835 3.4287 -1.0000
v  8.0515 3.2787 -1.0000
v  8.9647 2.8289 -1.0000
v  8.4703 1.9354 -1.0000
v  6.6155 0.4546 -1.0000
v  4.9589 -1.6254 -1.0000
v  5.0593 -4.3167 -1.0000
v  5.6619 -6.6766 -1.0000
v  5.5121 -7.7623 -1.0000
v  4.4943 -7.6064 -1.0000
v  2.4931 -6.2414 -1.0000
v  -0.0000 -5.2567 -1.0000
v  -2.4931 -6.2414 -1.0000
v  -4.4943 -7.6064 -1.0000
v  -5.5121 -7.7623 -1.0000
v  -5.6619 -6.6766 -1.0000
v  -5.0594 -4.3168 -1.0000
v  -4.9592 -1.6255 -1.0000
v  -6.6158 0.4546 -1.0000
v  -8.4706 1.9354 -1.0000
v  -8.9649 2.8288 -1.0000
v  -8.0516 3.2787 -1.0000
v  -5.6836 3.4287 -1.0000
v  -3.1121 4.1787 -1.0000
v  -1.5882 6.4287 -1.0000
v  -0.0000 9.4287 1.0000
v  0.6912 8.6787 1.0000
v  -0.6912 8.6787 1.0000
v  -1.5882 6.4287 1.0000
v  -3.1121 4.1787 1.0000
v  -5.6836 3.4287 1.0000
v  -8.0516 3.2787 1.0000
v  -8.9649 2.8288 1.0000
v  -8.4706 1.9354 1.0000
v  -6.6158 0.4546 1.0000
v  -4.9592 -1.6255 1.0000
v  -5.0594 -4.3168 1.0000
v  -5.6619 -6.6766 1.0000
v  -5.5121 -7.7623 1.0000
v  -4.4943 -7.6064 1.0000
v  -2.4931 -6.2414 1.0000
v  -0.0000 -5.2567 1.0000
v  2.4931 -6.2414 1.0000
v  4.4943 -7.6064 1.0000
v  5.5121 -7.7623 1.0000
v  5.6619 -6.6766 1.0000
v  5.0593 -4.3167 1.0000
v  4.9589 -1.6254 1.0000
v  6.6155 0.4546 1.0000
v  8.4703 1.9354 1.0000
v  8.9647 2.8289 1.0000
v  8.0515 3.2787 1.0000
v  5.6835 3.4287 1.0000
v  3.1120 4.1787 1.0000
v  1.5882 6.4287 1.0000
# 172 vertices

vn 0.3938 -0.8041 -0.4453
vn 0.8086 -0.4092 -0.4228
vn 0.8192 -0.4067 0.4043
vn 0.3920 -0.8149 0.4269
vn 0.8598 -0.0686 -0.5060
vn 0.6455 0.5784 -0.4989
vn 0.6450 0.5769 0.5011
vn 0.8583 -0.0676 0.5087
vn 0.2911 0.8617 -0.4156
vn -0.2912 0.8617 -0.4156
vn -0.2912 0.8617 0.4156
vn 0.2911 0.8617 0.4156
vn -0.6965 0.5977 -0.3971
vn -0.9151 -0.0530 -0.3998
vn -0.9169 -0.0549 0.3953
vn -0.6967 0.6000 0.3933
vn -0.8192 -0.4067 -0.4043
vn -0.3920 -0.8149 -0.4269
vn -0.3938 -0.8041 0.4453
vn -0.8086 -0.4092 0.4228
vn -0.5813 0.8075 0.1007
vn -0.5813 0.8075 -0.1007
vn -0.6361 0.5542 0.5368
vn -0.6361 0.5542 -0.5368
vn 0.5813 0.8075 -0.1007
vn 0.5813 0.8075 0.1007
vn 0.6361 0.5542 -0.5368
vn 0.6361 0.5542 0.5368
vn -0.9431 -0.3154 0.1056
vn -0.9431 -0.3154 -0.1056
vn -0.7073 -0.4504 0.5449
vn -0.7078 -0.4496 -0.5449
vn -0.3005 0.7706 -0.5620
vn -0.2994 0.7710 0.5620
vn -0.0000 -0.9914 0.1309
vn -0.0000 -0.9914 -0.1309
vn 0.1690 -0.8298 0.5319
vn 0.1710 -0.8295 -0.5317
vn -0.8347 -0.0213 -0.5503
vn -0.8346 -0.0241 0.5503
vn 0.9431 -0.3154 0.1056
vn 0.9431 -0.3154 -0.1056
vn 0.8347 -0.0213 0.5503
vn 0.8346 -0.0241 -0.5503
vn -0.1690 -0.8298 -0.5319
vn -0.1710 -0.8295 0.5317
vn 0.2563 0.7850 0.5640
vn 0.2558 0.7852 -0.5639
vn 0.6868 -0.4805 -0.5454
vn 0.6870 -0.4801 0.5454
vn -0.2305 -0.0746 -0.9702
vn -0.0795 -0.0323 -0.9963
vn 0.0000 -0.0001 -1.0000
vn -0.0850 -0.0198 -0.9962
vn -0.1718 -0.1729 -0.9698
vn -0.0555 0.0160 -0.9983
vn -0.0412 0.2356 -0.9710
vn -0.0457 0.0722 -0.9963
vn -0.1410 0.1923 -0.9711
vn -0.0558 0.0655 -0.9963
vn -0.2133 0.1115 -0.9706
vn -0.0000 0.0578 -0.9983
vn 0.2133 0.1115 -0.9706
vn 0.0558 0.0655 -0.9963
vn 0.1410 0.1923 -0.9711
vn 0.0457 0.0722 -0.9963
vn 0.0412 0.2356 -0.9710
vn 0.0555 0.0160 -0.9983
vn 0.1718 -0.1729 -0.9698
vn 0.0795 -0.0323 -0.9963
vn 0.2305 -0.0746 -0.9702
vn 0.0850 -0.0198 -0.9962
vn 0.2355 0.0347 -0.9712
vn 0.0333 -0.0490 -0.9982
vn -0.1109 -0.2125 -0.9708
vn -0.0076 -0.0852 -0.9963
vn 0.0000 -0.2434 -0.9699
vn 0.0076 -0.0852 -0.9963
vn 0.1109 -0.2125 -0.9708
vn -0.0333 -0.0490 -0.9982
vn -0.2355 0.0347 -0.9712
vn 0.0000 -0.2434 0.9699
vn -0.0076 -0.0852 0.9963
vn 0.0000 -0.0001 1.0000
vn 0.0076 -0.0852 0.9963
vn -0.1109 -0.2125 0.9708
vn 0.0333 -0.0490 0.9982
vn 0.2355 0.0347 0.9712
vn 0.0850 -0.0198 0.9962
vn 0.2305 -0.0746 0.9702
vn 0.0795 -0.0323 0.9963
vn 0.1718 -0.1729 0.9698
vn 0.0555 0.0160 0.9983
vn 0.0412 0.2356 0.9710
vn 0.0457 0.0722 0.9963
vn 0.1410 0.1923 0.9711
vn 0.0558 0.0655 0.9963
vn 0.2133 0.1115 0.9706
vn -0.0000 0.0578 0.9983
vn -0.2133 0.1115 0.9706
vn -0.0558 0.0655 0.9963
vn -0.1410 0.1923 0.9711
vn -0.0457 0.0722 0.9963
vn -0.0412 0.2356 0.9710
vn -0.0555 0.0160 0.9983
vn -0.1718 -0.1729 0.9698
vn -0.0795 -0.0323 0.9963
vn -0.2305 -0.0746 0.9702
vn -0.0850 -0.0198 0.9962
vn -0.2355 0.0347 0.9712
vn -0.0333 -0.0490 0.9982
vn 0.1109 -0.2125 0.9708
vn -0.0000 0.3796 -0.9251
vn -0.3407 0.1954 -0.9196
vn 0.3407 0.1954 -0.9196
vn 0.4691 0.1811 -0.8644
vn 0.5469 0.7473 -0.3774
vn 0.0256 0.5028 -0.8640
vn 0.0827 0.3768 -0.9226
vn 0.3635 0.1132 -0.9247
vn 0.2848 -0.2624 -0.9220
vn 0.3113 -0.3992 -0.8624
vn 0.8846 -0.2905 -0.3648
vn 0.4847 0.1309 -0.8649
vn 0.3822 0.0373 -0.9233
vn 0.2393 -0.2963 -0.9246
vn -0.1543 -0.3372 -0.9287
vn -0.2912 -0.4134 -0.8628
vn -0.0000 -0.9438 -0.3304
vn 0.2912 -0.4134 -0.8628
vn 0.1543 -0.3372 -0.9287
vn -0.2393 -0.2963 -0.9246
vn -0.3822 0.0373 -0.9233
vn -0.4847 0.1309 -0.8649
vn -0.8846 -0.2905 -0.3648
vn -0.3113 -0.3992 -0.8624
vn -0.2848 -0.2624 -0.9220
vn -0.3635 0.1133 -0.9247
vn -0.0827 0.3768 -0.9226
vn -0.0256 0.5028 -0.8640
vn -0.5469 0.7473 -0.3774
vn -0.4691 0.1811 -0.8644
vn 0.0000 0.3796 0.9251
vn 0.3407 0.1954 0.9196
vn -0.3407 0.1954 0.9196
vn -0.4691 0.1811 0.8644
vn -0.5469 0.7473 0.3774
vn -0.0256 0.5028 0.8640
vn -0.0827 0.3768 0.9226
vn -0.3635 0.1133 0.9247
vn -0.2848 -0.2624 0.9220
vn -0.3113 -0.3992 0.8624
vn -0.8846 -0.2905 0.3648
vn -0.4847 0.1309 0.8649
vn -0.3822 0.0373 0.9233
vn -0.2393 -0.2963 0.9246
vn 0.1543 -0.3372 0.9287
vn 0.2912 -0.4134 0.8628
vn -0.0000 -0.9438 0.3304
vn -0.2912 -0.4134 0.8628
vn -0.1543 -0.3372 0.9287
vn 0.2393 -0.2963 0.9246
vn 0.3822 0.0373 0.9233
vn 0.4847 0.1309 0.8649
vn 0.8846 -0.2905 0.3648
vn 0.3113 -0.3992 0.8624
vn 0.2848 -0.2624 0.9220
vn 0.3635 0.1132 0.9247
vn 0.0827 0.3768 0.9226
vn 0.0256 0.5028 0.8640
vn 0.5469 0.7473 0.3774
vn 0.4691 0.1811 0.8644
# 172 vertex normals

vt 0.8436 0.4135 0.0000
vt 0.8509 0.4212 0.0000
vt 0.9088 0.6164 0.0000
vt 0.9043 0.6328 0.0000
vt 0.7471 0.7537 0.0000
vt 0.7391 0.7537 0.0000
vt 0.5818 0.6328 0.0000
vt 0.5774 0.6164 0.0000
vt 0.6353 0.4212 0.0000
vt 0.6425 0.4135 0.0000
vt 0.6948 0.6371 0.0000
vt 0.7270 0.7407 0.0000
vt 0.3784 0.6403 0.0000
vt 0.3445 0.7433 0.0000
vt 0.6666 0.5414 0.0000
vt 0.5851 0.6026 0.0000
vt 0.5951 0.6371 0.0000
vt 0.7431 0.4817 0.0000
vt 0.6626 0.4135 0.0000
vt 0.6353 0.4385 0.0000
vt 0.4081 0.5451 0.0000
vt 0.4410 0.4428 0.0000
vt 0.8235 0.4135 0.0000
vt 0.7913 0.6371 0.0000
vt 0.8911 0.6371 0.0000
vt 0.4938 0.6060 0.0000
vt 0.6707 0.5423 0.0000
vt 0.6687 0.5756 0.0000
vt 0.7431 0.5670 0.0000
vt 0.6874 0.5137 0.0000
vt 0.6312 0.5956 0.0000
vt 0.6393 0.6030 0.0000
vt 0.6366 0.6143 0.0000
vt 0.6779 0.6073 0.0000
vt 0.6978 0.6335 0.0000
vt 0.7272 0.6461 0.0000
vt 0.7339 0.6910 0.0000
vt 0.7431 0.6850 0.0000
vt 0.7522 0.6910 0.0000
vt 0.7589 0.6461 0.0000
vt 0.7884 0.6335 0.0000
vt 0.8083 0.6073 0.0000
vt 0.8496 0.6143 0.0000
vt 0.8469 0.6030 0.0000
vt 0.8550 0.5956 0.0000
vt 0.8175 0.5756 0.0000
vt 0.8155 0.5423 0.0000
vt 0.7987 0.5137 0.0000
vt 0.8178 0.4729 0.0000
vt 0.8069 0.4712 0.0000
vt 0.8026 0.4604 0.0000
vt 0.7731 0.4933 0.0000
vt 0.7431 0.4853 0.0000
vt 0.7131 0.4933 0.0000
vt 0.6836 0.4604 0.0000
vt 0.6793 0.4712 0.0000
vt 0.6684 0.4729 0.0000
vt 0.3276 0.4894 0.0000
vt 0.3592 0.4973 0.0000
vt 0.3276 0.5706 0.0000
vt 0.2960 0.4973 0.0000
vt 0.3902 0.4646 0.0000
vt 0.3947 0.4754 0.0000
vt 0.4062 0.4770 0.0000
vt 0.3862 0.5175 0.0000
vt 0.4038 0.5460 0.0000
vt 0.4059 0.5792 0.0000
vt 0.4454 0.5990 0.0000
vt 0.4368 0.6063 0.0000
vt 0.4397 0.6176 0.0000
vt 0.3962 0.6106 0.0000
vt 0.3753 0.6366 0.0000
vt 0.3443 0.6493 0.0000
vt 0.3372 0.6939 0.0000
vt 0.3276 0.6879 0.0000
vt 0.3180 0.6939 0.0000
vt 0.3109 0.6493 0.0000
vt 0.2799 0.6366 0.0000
vt 0.2590 0.6106 0.0000
vt 0.2155 0.6176 0.0000
vt 0.2184 0.6063 0.0000
vt 0.2098 0.5990 0.0000
vt 0.2493 0.5792 0.0000
vt 0.2514 0.5460 0.0000
vt 0.2690 0.5175 0.0000
vt 0.2490 0.4770 0.0000
vt 0.2605 0.4754 0.0000
vt 0.2650 0.4646 0.0000
vt 0.7592 0.7407 0.0000
vt 0.7431 0.7309 0.0000
vt 0.7320 0.7179 0.0000
vt 0.7542 0.7179 0.0000
vt 0.7686 0.6791 0.0000
vt 0.3803 0.6434 0.0000
vt 0.3545 0.6820 0.0000
vt 0.7931 0.6402 0.0000
vt 0.8345 0.6273 0.0000
vt 0.4238 0.6305 0.0000
vt 0.8726 0.6247 0.0000
vt 0.9010 0.6026 0.0000
vt 0.8873 0.6169 0.0000
vt 0.8793 0.6015 0.0000
vt 0.8196 0.5414 0.0000
vt 0.8495 0.5759 0.0000
vt 0.4115 0.5437 0.0000
vt 0.4396 0.5794 0.0000
vt 0.8228 0.5400 0.0000
vt 0.8509 0.4385 0.0000
vt 0.8245 0.4935 0.0000
vt 0.4132 0.4975 0.0000
vt 0.8342 0.4527 0.0000
vt 0.8317 0.4340 0.0000
vt 0.8154 0.4367 0.0000
vt 0.7832 0.4603 0.0000
vt 0.3276 0.4858 0.0000
vt 0.3276 0.4814 0.0000
vt 0.3698 0.4644 0.0000
vt 0.7431 0.4773 0.0000
vt 0.7030 0.4603 0.0000
vt 0.2854 0.4644 0.0000
vt 0.6708 0.4367 0.0000
vt 0.6544 0.4340 0.0000
vt 0.6520 0.4527 0.0000
vt 0.6617 0.4935 0.0000
vt 0.2471 0.5451 0.0000
vt 0.2437 0.5437 0.0000
vt 0.2420 0.4975 0.0000
vt 0.6633 0.5400 0.0000
vt 0.6366 0.5759 0.0000
vt 0.2156 0.5794 0.0000
vt 0.6068 0.6015 0.0000
vt 0.5989 0.6169 0.0000
vt 0.6136 0.6247 0.0000
vt 0.6516 0.6273 0.0000
vt 0.2768 0.6403 0.0000
vt 0.2749 0.6434 0.0000
vt 0.2314 0.6305 0.0000
vt 0.6930 0.6402 0.0000
vt 0.7175 0.6791 0.0000
vt 0.3007 0.6820 0.0000
vt 0.3107 0.7433 0.0000
vt 0.3276 0.7335 0.0000
vt 0.3393 0.7206 0.0000
vt 0.3159 0.7206 0.0000
vt 0.1719 0.6403 0.0000
vt 0.1913 0.6279 0.0000
vt 0.1614 0.6060 0.0000
vt 0.1758 0.6202 0.0000
vt 0.1842 0.6048 0.0000
vt 0.2142 0.4428 0.0000
vt 0.2318 0.4570 0.0000
vt 0.2430 0.4179 0.0000
vt 0.2343 0.4383 0.0000
vt 0.2515 0.4410 0.0000
vt 0.4122 0.4179 0.0000
vt 0.4037 0.4410 0.0000
vt 0.4209 0.4383 0.0000
vt 0.4235 0.4570 0.0000
vt 0.4710 0.6048 0.0000
vt 0.4833 0.6403 0.0000
vt 0.4794 0.6202 0.0000
vt 0.4639 0.6279 0.0000
vt 0.2142 0.4257 0.0000
vt 0.2218 0.4179 0.0000
vt 0.4334 0.4179 0.0000
vt 0.4410 0.4257 0.0000
vt 0.3318 0.7562 0.0000
vt 0.3234 0.7562 0.0000
vt 0.1579 0.6360 0.0000
vt 0.1532 0.6197 0.0000
vt 0.5020 0.6197 0.0000
vt 0.4973 0.6360 0.0000
# 172 texture coords

g Cylinder001
usemtl Material__2
s 37054
f 1/1/1 2/2/2 3/2/3 4/1/4 
s 27678
f 5/3/5 6/4/6 7/4/7 8/3/8 
s 29726
f 9/5/9 10/6/10 11/6/11 12/5/12 
s 9406
f 13/7/13 14/8/14 15/8/15 16/7/16 
s 6334
f 17/9/17 18/10/18 19/10/19 20/9/20 
s 2149
f 21/11/21 22/11/22 23/12/23 24/12/24 
s 2161
f 25/13/25 26/13/26 27/14/27 28/14/28 
s 16485
f 29/15/29 30/15/30 31/16/31 32/16/32 
s 4497
f 22/11/22 21/11/21 33/17/33 34/17/34 
s 1125
f 35/18/35 36/18/36 37/19/37 38/19/38 
s 1425
f 30/15/30 29/15/29 39/20/39 40/20/40 
s 1125
f 41/21/41 42/21/42 43/22/43 44/22/44 
s 2449
f 36/18/36 35/18/35 45/23/45 46/23/46 
s 4485
f 26/24/26 25/24/25 47/25/47 48/25/48 
s 913
f 42/21/42 41/21/41 49/26/49 50/26/50 
s 4194113
f 51/27/51 52/28/52 53/29/53 54/30/54 
f 55/31/55 56/32/56 53/29/53 52/28/52 
f 57/33/57 58/34/58 53/29/53 56/32/56 
f 59/35/59 60/36/60 53/29/53 58/34/58 
f 61/37/61 62/38/62 53/29/53 60/36/60 
f 63/39/63 64/40/64 53/29/53 62/38/62 
f 65/41/65 66/42/66 53/29/53 64/40/64 
f 67/43/67 68/44/68 53/29/53 66/42/66 
f 69/45/69 70/46/70 53/29/53 68/44/68 
f 71/47/71 72/48/72 53/29/53 70/46/70 
f 73/49/73 74/50/74 53/29/53 72/48/72 
f 75/51/75 76/52/76 53/29/53 74/50/74 
f 77/53/77 78/54/78 53/29/53 76/52/76 
f 79/55/79 80/56/80 53/29/53 78/54/78 
f 81/57/81 54/30/54 53/29/53 80/56/80 
s 4193953
f 82/58/82 83/59/83 84/60/84 85/61/85 
f 86/62/86 87/63/87 84/60/84 83/59/83 
f 88/64/88 89/65/89 84/60/84 87/63/87 
f 90/66/90 91/67/91 84/60/84 89/65/89 
f 92/68/92 93/69/93 84/60/84 91/67/91 
f 94/70/94 95/71/95 84/60/84 93/69/93 
f 96/72/96 97/73/97 84/60/84 95/71/95 
f 98/74/98 99/75/99 84/60/84 97/73/97 
f 100/76/100 101/77/101 84/60/84 99/75/99 
f 102/78/102 103/79/103 84/60/84 101/77/101 
f 104/80/104 105/81/105 84/60/84 103/79/103 
f 106/82/106 107/83/107 84/60/84 105/81/105 
f 108/84/108 109/85/109 84/60/84 107/83/107 
f 110/86/110 111/87/111 84/60/84 109/85/109 
f 112/88/112 85/61/85 84/60/84 111/87/111 
s 12583298
f 24/12/24 27/89/27 113/90/113 
s 12583170
f 114/91/114 24/12/24 113/90/113 
f 27/89/27 115/92/115 113/90/113 
f 63/39/63 62/38/62 113/90/113 115/92/115 
f 61/37/61 114/91/114 113/90/113 62/38/62 
s 25166368
f 27/89/27 26/24/26 116/93/116 
f 115/92/115 27/89/27 116/93/116 
f 26/13/26 117/94/117 116/95/116 
f 65/41/65 64/40/64 116/93/116 117/96/117 
f 63/39/63 115/92/115 116/93/116 64/40/64 
s 20972672
f 26/24/26 48/25/48 118/97/118 
f 117/94/117 26/13/26 118/98/118 
f 48/25/48 119/99/119 118/97/118 
f 67/43/67 66/42/66 118/97/118 119/99/119 
f 65/41/65 117/96/117 118/97/118 66/42/66 
s 12583010
f 48/25/48 49/100/49 120/101/120 
s 12582978
f 119/99/119 48/25/48 120/101/120 
f 49/100/49 121/102/121 120/101/120 
f 69/45/69 68/44/68 120/101/120 121/102/121 
f 67/43/67 119/99/119 120/101/120 68/44/68 
s 25168000
f 49/100/49 41/103/41 122/104/122 
f 121/102/121 49/100/49 122/104/122 
f 41/21/41 123/105/123 122/106/122 
f 71/47/71 70/46/70 122/104/122 123/107/123 
f 69/45/69 121/102/121 122/104/122 70/46/70 
s 20975648
f 41/103/41 44/108/44 124/109/124 
f 123/105/123 41/21/41 124/110/124 
f 44/108/44 125/111/125 124/109/124 
f 73/49/73 72/48/72 124/109/124 125/111/125 
f 71/47/71 123/107/123 124/109/124 72/48/72 
s 12591618
f 44/108/44 45/23/45 126/112/126 
s 12591106
f 125/111/125 44/108/44 126/112/126 
f 45/23/45 127/113/127 126/112/126 
f 75/51/75 74/50/74 126/112/126 127/113/127 
f 73/49/73 125/111/125 126/112/126 74/50/74 
s 25182336
f 45/23/45 35/18/35 128/114/128 
f 127/113/127 45/23/45 128/114/128 
f 35/115/35 129/116/129 128/117/128 
f 77/53/77 76/52/76 128/114/128 129/118/129 
f 75/51/75 127/113/127 128/114/128 76/52/76 
s 21004320
f 35/18/35 38/19/38 130/119/130 
f 129/116/129 35/115/35 130/120/130 
f 38/19/38 131/121/131 130/119/130 
f 79/55/79 78/54/78 130/119/130 131/121/131 
f 77/53/77 129/118/129 130/119/130 78/54/78 
s 12648962
f 38/19/38 39/20/39 132/122/132 
s 12648450
f 131/121/131 38/19/38 132/122/132 
f 39/20/39 133/123/133 132/122/132 
f 81/57/81 80/56/80 132/122/132 133/123/133 
f 79/55/79 131/121/131 132/122/132 80/56/80 
s 25297024
f 39/20/39 29/15/29 134/124/134 
f 133/123/133 39/20/39 134/124/134 
f 29/125/29 135/126/135 134/127/134 
f 51/27/51 54/30/54 134/124/134 135/128/135 
f 81/57/81 133/123/133 134/124/134 54/30/54 
s 21233696
f 29/15/29 32/16/32 136/129/136 
f 135/126/135 29/125/29 136/130/136 
f 32/16/32 137/131/137 136/129/136 
f 55/31/55 52/28/52 136/129/136 137/131/137 
f 51/27/51 135/128/135 136/129/136 52/28/52 
s 13107714
f 32/16/32 33/17/33 138/132/138 
s 13107202
f 137/131/137 32/16/32 138/132/138 
f 33/17/33 139/133/139 138/132/138 
f 57/33/57 56/32/56 138/132/138 139/133/139 
f 55/31/55 137/131/137 138/132/138 56/32/56 
s 26214528
f 33/17/33 21/11/21 140/134/140 
f 139/133/139 33/17/33 140/134/140 
f 21/135/21 141/136/141 140/137/140 
f 59/35/59 58/34/58 140/134/140 141/138/141 
f 57/33/57 139/133/139 140/134/140 58/34/58 
s 23068704
f 21/11/21 24/12/24 142/139/142 
f 141/136/141 21/135/21 142/140/142 
f 24/12/24 114/91/114 142/139/142 
f 61/37/61 60/36/60 142/139/142 114/91/114 
f 59/35/59 141/138/141 142/139/142 60/36/60 
s 12583304
f 28/14/28 23/141/23 143/142/143 
s 12583048
f 144/143/144 28/14/28 143/142/143 
f 23/141/23 145/144/145 143/142/143 
f 100/76/100 99/75/99 143/142/143 145/144/145 
f 98/74/98 144/143/144 143/142/143 99/75/99 
s 25166400
f 23/141/23 22/135/22 146/140/146 
f 145/144/145 23/141/23 146/140/146 
f 22/11/22 147/138/147 146/139/146 
f 102/78/102 101/77/101 146/140/146 147/136/147 
f 100/76/100 145/144/145 146/140/146 101/77/101 
s 20972800
f 22/135/22 34/145/34 148/137/148 
f 147/138/147 22/11/22 148/134/148 
f 34/145/34 149/146/149 148/137/148 
f 104/80/104 103/79/103 148/137/148 149/146/149 
f 102/78/102 147/136/147 148/137/148 103/79/103 
s 12585480
f 34/145/34 31/147/31 150/148/150 
s 12584968
f 149/146/149 34/145/34 150/148/150 
f 31/147/31 151/149/151 150/148/150 
f 106/82/106 105/81/105 150/148/150 151/149/151 
f 104/80/104 149/146/149 150/148/150 105/81/105 
s 25169984
f 31/147/31 30/125/30 152/130/152 
f 151/149/151 31/147/31 152/130/152 
f 30/15/30 153/128/153 152/129/152 
f 108/84/108 107/83/107 152/130/152 153/126/153 
f 106/82/106 151/149/151 152/130/152 107/83/107 
s 20979968
f 30/125/30 40/150/40 154/127/154 
f 153/128/153 30/15/30 154/124/154 
f 40/150/40 155/151/155 154/127/154 
f 110/86/110 109/85/109 154/127/154 155/151/155 
f 108/84/108 153/126/153 154/127/154 109/85/109 
s 12599816
f 40/150/40 37/152/37 156/153/156 
s 12599304
f 155/151/155 40/150/40 156/153/156 
f 37/152/37 157/154/157 156/153/156 
f 112/88/112 111/87/111 156/153/156 157/154/157 
f 110/86/110 155/151/155 156/153/156 111/87/111 
s 25198656
f 37/152/37 36/115/36 158/120/158 
f 157/154/157 37/152/37 158/120/158 
f 36/18/36 159/118/159 158/119/158 
f 82/58/82 85/61/85 158/120/158 159/116/159 
f 112/88/112 157/154/157 158/120/158 85/61/85 
s 21037312
f 36/115/36 46/155/46 160/117/160 
f 159/118/159 36/18/36 160/114/160 
f 46/155/46 161/156/161 160/117/160 
f 86/62/86 83/59/83 160/117/160 161/156/161 
f 82/58/82 159/116/159 160/117/160 83/59/83 
s 12714504
f 46/155/46 43/22/43 162/157/162 
s 12713992
f 161/156/161 46/155/46 162/157/162 
f 43/22/43 163/158/163 162/157/162 
f 88/64/88 87/63/87 162/157/162 163/158/163 
f 86/62/86 161/156/161 162/157/162 87/63/87 
s 25428032
f 43/22/43 42/21/42 164/110/164 
f 163/158/163 43/22/43 164/110/164 
f 42/103/42 165/107/165 164/109/164 
f 90/66/90 89/65/89 164/110/164 165/105/165 
f 88/64/88 163/158/163 164/110/164 89/65/89 
s 21496064
f 42/21/42 50/26/50 166/106/166 
f 165/107/165 42/103/42 166/104/166 
f 50/26/50 167/159/167 166/106/166 
f 92/68/92 91/67/91 166/106/166 167/159/167 
f 90/66/90 165/105/165 166/106/166 91/67/91 
s 12583016
f 50/26/50 47/160/47 168/161/168 
s 12582952
f 167/159/167 50/26/50 168/161/168 
f 47/160/47 169/162/169 168/161/168 
f 94/70/94 93/69/93 168/161/168 169/162/169 
f 92/68/92 167/159/167 168/161/168 93/69/93 
s 26214656
f 47/160/47 25/13/25 170/98/170 
f 169/162/169 47/160/47 170/98/170 
f 25/24/25 171/96/171 170/97/170 
f 96/72/96 95/71/95 170/98/170 171/94/171 
f 94/70/94 169/162/169 170/98/170 95/71/95 
s 23068736
f 25/13/25 28/14/28 172/95/172 
f 171/96/171 25/24/25 172/93/172 
f 28/14/28 144/143/144 172/95/172 
f 98/74/98 97/73/97 172/95/172 144/143/144 
f 96/72/96 171/94/171 172/95/172 97/73/97 
s 272896
f 39/20/39 38/19/38 18/10/18 17/9/17 
s 140416
f 38/19/38 37/19/37 19/10/19 18/10/18 
s 659968
f 37/152/37 40/150/40 20/163/20 19/164/19 
s 787488
f 40/20/40 39/20/39 17/9/17 20/9/20 
s 360960
f 45/23/45 44/108/44 2/2/2 1/1/1 
s 83072
f 44/108/44 43/108/43 3/2/3 2/2/2 
s 545280
f 43/22/43 46/155/46 4/165/4 3/166/3 
s 788512
f 46/23/46 45/23/45 1/1/1 4/1/4 
s 99456
f 27/89/27 24/12/24 10/6/10 9/5/9 
s 202752
f 24/12/24 23/12/23 11/6/11 10/6/10 
s 401664
f 23/141/23 28/14/28 12/167/12 11/168/11 
s 313344
f 28/14/28 27/14/27 9/167/9 12/167/12 
s 99840
f 33/17/33 32/16/32 14/8/14 13/7/13 
s 213120
f 32/16/32 31/16/31 15/8/15 14/8/14 
s 401920
f 31/147/31 34/145/34 16/169/16 15/170/15 
s 299040
f 34/17/34 33/17/33 13/7/13 16/7/16 
s 106528
f 49/100/49 48/25/48 6/4/6 5/3/5 
s 202752
f 48/25/48 47/25/47 7/4/7 6/4/6 
s 394304
f 47/160/47 50/26/50 8/171/8 7/172/7 
s 311808
f 50/26/50 49/26/49 5/171/5 8/171/8 
# 125 polygons - 90 triangles

