# 3ds Max Wavefront OBJ Exporter v0.97b - (c)2007 guruware
# çÏê¨ÇµÇΩÉtÉ@ÉCÉã : 07.05.2019 13:43:31

mtllib t.mtl

#
# object Box001
#

v  25.0003 -5.0000 -1.0000
v  25.0003 5.0000 -1.0000
v  25.0003 5.0000 1.0000
v  25.0003 -5.0000 1.0000
v  -25.0003 5.0000 -1.0000
v  -25.0003 -5.0000 -1.0000
v  -25.0003 -5.0000 1.0000
v  -25.0003 5.0000 1.0000
v  5.0000 -5.0000 -5.0000
v  5.0000 5.0000 -5.0000
v  20.0003 5.0000 -5.0000
v  20.0003 -5.0000 -5.0000
v  10.0000 10.0000 -1.0000
v  10.0000 10.0000 1.0000
v  20.0003 10.0000 1.0000
v  20.0003 10.0000 -1.0000
v  5.0000 5.0000 5.0000
v  5.0000 -5.0000 5.0000
v  20.0003 -5.0000 5.0000
v  20.0003 5.0000 5.0000
v  10.0000 -10.0000 1.0000
v  10.0000 -10.0000 -1.0000
v  20.0003 -10.0000 -1.0000
v  20.0003 -10.0000 1.0000
v  -5.0000 -5.0000 -5.0000
v  -5.0000 5.0000 -5.0000
v  -5.0000 5.0000 5.0000
v  -5.0000 -5.0000 5.0000
v  5.0000 25.0003 1.0000
v  5.0000 25.0003 -1.0000
v  -5.0000 25.0003 -1.0000
v  -5.0000 25.0003 1.0000
v  -20.0003 -5.0000 -5.0000
v  -20.0003 5.0000 -5.0000
v  -10.0000 -10.0000 -1.0000
v  -10.0000 -10.0000 1.0000
v  -20.0003 -10.0000 1.0000
v  -20.0003 -10.0000 -1.0000
v  -20.0003 5.0000 5.0000
v  -20.0003 -5.0000 5.0000
v  -10.0000 10.0000 1.0000
v  -10.0000 10.0000 -1.0000
v  -20.0003 10.0000 -1.0000
v  -20.0003 10.0000 1.0000
v  10.0000 20.0003 -1.0000
v  10.0000 20.0003 1.0000
v  -5.0000 20.0003 -5.0000
v  5.0000 20.0003 -5.0000
v  -10.0000 20.0003 1.0000
v  -10.0000 20.0003 -1.0000
v  5.0000 20.0003 5.0000
v  -5.0000 20.0003 5.0000
v  10.0000 -24.9997 1.0000
v  10.0000 -24.9997 -1.0000
v  -5.0000 -29.9997 5.0000
v  5.0000 -29.9997 5.0000
v  -10.0000 -29.9997 -1.0000
v  -10.0000 -29.9997 1.0000
v  5.0000 -29.9997 -5.0000
v  -5.0000 -29.9997 -5.0000
v  20.0000 -29.9997 -1.0000
v  20.0000 -29.9997 1.0000
v  20.0000 -39.9997 1.0000
v  20.0000 -39.9997 -1.0000
v  5.0000 -39.9997 5.0000
v  5.0000 -44.9997 -1.0000
v  5.0000 -44.9997 1.0000
v  5.0000 -39.9997 -5.0000
v  15.0000 -24.9997 1.0000
v  15.0000 -24.9997 -1.0000
v  15.0000 -39.9997 5.0000
v  15.0000 -29.9997 5.0000
v  15.0000 -44.9997 -1.0000
v  15.0000 -44.9997 1.0000
v  15.0000 -29.9997 -5.0000
v  15.0000 -39.9997 -5.0000
# 76 vertices

vn 1.0000 0.0000 -0.0000
vn -1.0000 0.0000 -0.0000
vn 0.0000 0.0000 -1.0000
vn 0.0000 1.0000 0.0000
vn 0.0000 -0.0000 1.0000
vn 0.0000 -1.0000 -0.0000
vn -0.0000 -0.0000 1.0000
vn -0.7071 -0.7071 -0.0000
vn -0.0000 0.0000 -1.0000
vn 0.6247 -0.0000 0.7809
vn 0.6247 0.0000 -0.7809
vn -0.0000 -0.6247 -0.7809
vn 0.5298 -0.5298 -0.6623
vn 0.7071 -0.7071 -0.0000
vn 0.5298 -0.5298 0.6623
vn 0.0000 -0.6247 0.7809
vn -0.5298 -0.5298 -0.6623
vn -0.5298 -0.5298 0.6623
vn 0.0000 0.6247 0.7809
vn 0.5298 0.5298 0.6623
vn 0.7071 0.7071 0.0000
vn 0.5298 0.5298 -0.6623
vn -0.0000 0.6247 -0.7809
vn 0.0000 -0.6247 -0.7809
vn 0.0000 0.6247 -0.7809
vn -0.6247 0.0000 -0.7809
vn -0.6247 -0.0000 0.7809
vn -0.0000 -0.6247 0.7809
vn -0.5298 0.5298 -0.6623
vn -0.7071 0.7071 0.0000
vn -0.5298 0.5298 0.6623
vn -0.7071 0.7071 -0.0000
# 32 vertex normals

vt 0.0000 0.0000 0.0000
vt 1.0000 0.0000 0.0000
vt 1.0000 1.0000 0.0000
vt 0.0000 1.0000 0.0000
# 4 texture coords

g Box001
usemtl wire_008110135
s 16
f 1/1/1 2/2/1 3/3/1 4/4/1 
s 64
f 5/1/2 6/2/2 7/3/2 8/4/2 
s off
f 9/1/3 10/2/3 11/2/3 12/1/3 
f 13/2/4 14/3/4 15/3/4 16/2/4 
f 17/3/5 18/4/5 19/4/5 20/3/5 
f 21/4/6 22/1/6 23/1/6 24/4/6 
f 10/1/3 9/2/3 25/2/3 26/1/3 
f 18/3/5 17/4/5 27/4/5 28/3/5 
f 29/4/4 30/1/4 31/1/4 32/4/4 
f 26/1/3 25/2/3 33/2/3 34/1/3 
f 35/2/6 36/3/6 37/3/6 38/2/6 
f 28/3/5 27/4/5 39/4/5 40/3/5 
f 41/4/4 42/1/4 43/1/4 44/4/4 
f 14/4/1 13/1/1 45/1/1 46/4/1 
f 10/1/3 26/1/3 47/1/3 48/1/3 
f 42/1/2 41/4/2 49/4/2 50/1/2 
f 27/4/5 17/4/5 51/4/5 52/4/5 
f 22/2/1 21/3/1 53/3/1 54/2/1 
f 18/3/7 28/3/7 55/3/7 56/3/7 
f 36/3/2 35/2/2 57/2/2 58/3/2 
f 25/2/3 9/2/3 59/2/3 60/2/3 
f 61/2/1 62/3/1 63/3/1 64/2/1 
f 56/3/7 55/3/7 65/3/7 
f 58/3/8 57/2/8 66/2/8 67/3/8 
f 60/2/3 59/2/3 68/2/3 
f 54/2/4 53/3/4 69/3/4 70/2/4 
f 56/3/7 65/3/7 71/3/7 72/3/7 
f 67/3/6 66/2/6 73/2/6 74/3/6 
f 68/2/9 59/2/9 75/2/9 76/2/9 
f 72/3/10 71/3/10 63/3/10 62/3/10 
f 76/2/11 75/2/11 61/2/11 64/2/11 
f 68/2/12 76/2/12 73/2/12 66/2/12 
f 76/2/13 64/2/13 73/2/13 
f 64/2/14 63/3/14 74/3/14 73/2/14 
f 63/3/15 71/3/15 74/3/15 
f 71/3/16 65/3/16 67/3/16 74/3/16 
f 60/2/17 68/2/17 66/2/17 57/2/17 
f 65/3/18 55/3/18 58/3/18 67/3/18 
f 56/3/19 72/3/19 69/3/19 53/3/19 
f 72/3/20 62/3/20 69/3/20 
f 62/3/21 61/2/21 70/2/21 69/3/21 
f 61/2/22 75/2/22 70/2/22 
f 75/2/23 59/2/23 54/2/23 70/2/23 
f 18/3/10 56/3/10 53/3/10 21/3/10 
f 59/2/11 9/2/11 22/2/11 54/2/11 
f 1/1/14 4/4/14 24/4/14 23/1/14 
f 19/4/16 18/4/16 21/4/16 24/4/16 
f 9/1/24 12/1/24 23/1/24 22/1/24 
f 17/3/19 20/3/19 15/3/19 14/3/19 
f 3/3/21 2/2/21 16/2/21 15/3/21 
f 11/2/25 10/2/25 13/2/25 16/2/25 
f 12/1/11 11/2/11 2/2/11 1/1/11 
f 11/2/22 16/2/22 2/2/22 
f 15/3/20 20/3/20 3/3/20 
f 20/3/10 19/4/10 4/4/10 3/3/10 
f 19/4/15 24/4/15 4/4/15 
f 23/1/13 12/1/13 1/1/13 
f 33/2/24 25/2/24 35/2/24 38/2/24 
f 25/2/26 60/2/26 57/2/26 35/2/26 
f 55/3/27 28/3/27 36/3/27 58/3/27 
f 28/3/28 40/3/28 37/3/28 36/3/28 
f 51/4/10 17/4/10 14/4/10 46/4/10 
f 10/1/11 48/1/11 45/1/11 13/1/11 
f 34/1/26 33/2/26 6/2/26 5/1/26 
f 33/2/17 38/2/17 6/2/17 
f 38/2/8 37/3/8 7/3/8 6/2/8 
f 37/3/18 40/3/18 7/3/18 
f 40/3/27 39/4/27 8/4/27 7/3/27 
f 26/1/23 34/1/23 43/1/23 42/1/23 
f 34/1/29 5/1/29 43/1/29 
f 5/1/30 8/4/30 44/4/30 43/1/30 
f 8/4/31 39/4/31 44/4/31 
f 39/4/19 27/4/19 41/4/19 44/4/19 
f 27/4/27 52/4/27 49/4/27 41/4/27 
f 47/1/26 26/1/26 42/1/26 50/1/26 
f 48/1/25 47/1/25 31/1/25 30/1/25 
f 47/1/29 50/1/29 31/1/29 
f 50/1/32 49/4/32 32/4/32 31/1/32 
f 49/4/31 52/4/31 32/4/31 
f 52/4/19 51/4/19 29/4/19 32/4/19 
f 51/4/20 46/4/20 29/4/20 
f 46/4/21 45/1/21 30/1/21 29/4/21 
f 45/1/22 48/1/22 30/1/22 
# 65 polygons - 18 triangles

